<svg width="213" height="233" fill="none" xmlns="http://www.w3.org/2000/svg"><g clip-path="url('#clip0_2745_3674')"><path d="M141.837 256.105c50.932 0 92.205-41.33 92.205-92.292 0-50.961-41.273-92.29-92.205-92.29-50.933 0-92.205 41.329-92.205 92.29 0 50.962 41.272 92.292 92.205 92.292Z" fill="#F8EFE5" stroke="#3C8AAC" stroke-width="18.877"/><path d="M243.983 162.741c0-17.568-4.723-34.823-13.691-50.025-8.968-15.202-21.862-27.81-37.38-36.556-15.517-8.746-33.11-13.32-51.002-13.261-17.893.059-35.069 4.63-50.527 13.478" stroke="#1B1B1B" stroke-width="1.4"/><path d="M147.555 248.945c14.69-1.232 28.789-6.384 40.874-14.935 12.085-8.55 21.728-20.195 27.957-33.759 6.229-13.563 8.825-28.566 7.526-43.494-1.299-14.928-6.322-28.942-14.8-41.222M200.014 104.223c-10.162-10.172-22.937-17.366-37.035-20.858-14.098-3.491-29.019-3.156-43.257.97-14.239 4.125-27.291 11.895-37.842 22.524-29.886 34.41-29.387 85.828-4.453 107.295" stroke="#1B1B1B" stroke-width="1.4"/><path d="M70.012 92.785a100.005 100.005 0 0 0-25.951 45.235 100.966 100.966 0 0 0 .268 52.317 101.77 101.77 0 0 0 26.413 45.324 101.608 101.608 0 0 0 45.45 26.138" stroke="#1B1B1B" stroke-width="1.4"/><path stroke="#1B1B1B" stroke-width="1.4" stroke-linecap="round" d="M141.262 96.388v24.041"/><path transform="rotate(122.196 56.526 102.759) skewX(-.054)" stroke="#1B1B1B" stroke-width="1.4" stroke-linecap="round" d="M.7-.7h10.524"/><path transform="rotate(150.299 81.155 92.748) skewX(-.051)" stroke="#1B1B1B" stroke-width="1.4" stroke-linecap="round" d="M.7-.7h10.518"/><path transform="rotate(-150.908 124.651 73.586) skewX(.051)" stroke="#1B1B1B" stroke-width="1.4" stroke-linecap="round" d="M.7-.7h10.518"/><path transform="rotate(-121.667 149.583 62.66) skewX(.053)" stroke="#1B1B1B" stroke-width="1.4" stroke-linecap="round" d="M.7-.7h10.524"/><path transform="rotate(-58.761 252.34 14.5) skewX(-.053)" stroke="#1B1B1B" stroke-width="1.4" stroke-linecap="round" d="M.7-.7h10.524"/><path transform="rotate(-30.111 412.505 -59.575) skewX(-.052)" stroke="#1B1B1B" stroke-width="1.4" stroke-linecap="round" d="M.7-.7h10.518"/><path transform="rotate(30.062 -206.907 224.54) skewX(.052)" stroke="#1B1B1B" stroke-width="1.4" stroke-linecap="round" d="M.7-.7h10.518"/><path transform="rotate(55.044 -51.48 158.025) skewX(.056)" stroke="#1B1B1B" stroke-width="1.4" stroke-linecap="round" d="M.7-.7h10.523"/><path stroke="#1B1B1B" stroke-width="1.4" stroke-linecap="round" d="M72.645 166.223H95.39M211.027 166.352h-22.745M141.136 234.917v-22.769"/><path stroke="#9B5C8F" stroke-width="6" stroke-linecap="round" d="M142 144v29"/></g><defs><clipPath id="clip0_2745_3674"><path fill="#fff" d="M0 0h213v233H0z"/></clipPath></defs></svg>