<svg width="40" height="40" fill="none" xmlns="http://www.w3.org/2000/svg"><g clip-path="url('#clip0_845_2787')"><rect width="40" height="40" rx="20" fill="#fff"/><path fill="#02021E" d="M110.225-21.76H-10.333v871.408h120.558z"/><g opacity=".4" filter="url('#filter0_f_845_2787')"><ellipse rx="65.412" ry="59.412" transform="matrix(-1 0 0 1 6.354 -15.176)" fill="url('#paint0_radial_845_2787')"/></g><g opacity=".75" filter="url('#filter1_f_845_2787')"><path fill-rule="evenodd" clip-rule="evenodd" d="M31.784 13.136a6.42 6.42 0 0 0-4.248 4.256c-.1.32-.538.32-.638 0a6.42 6.42 0 0 0-4.248-4.256.333.333 0 0 1 0-.64 6.418 6.418 0 0 0 4.248-4.257c.1-.32.538-.32.638 0a6.418 6.418 0 0 0 4.248 4.257c.32.1.32.54 0 .64Z" fill="#FFE336"/></g><path fill-rule="evenodd" clip-rule="evenodd" d="M31.73 13.136a6.42 6.42 0 0 0-4.249 4.256c-.1.32-.538.32-.638 0a6.42 6.42 0 0 0-4.248-4.256.333.333 0 0 1 0-.64 6.418 6.418 0 0 0 4.248-4.257c.1-.32.538-.32.638 0a6.418 6.418 0 0 0 4.248 4.257c.32.1.32.54 0 .64Z" fill="#FFE336"/><path fill-rule="evenodd" clip-rule="evenodd" d="M19.773 31.886c-6.36 0-11.536-5.186-11.536-11.56 0-5.408 3.67-10.039 8.926-11.262a1.927 1.927 0 0 1 .87 3.754c-3.448.802-5.95 3.96-5.95 7.508 0 4.249 3.45 7.706 7.69 7.706a7.7 7.7 0 0 0 7.556-6.266 1.921 1.921 0 0 1 2.248-1.533 1.926 1.926 0 0 1 1.53 2.252c-1.031 5.447-5.798 9.4-11.334 9.4Z" fill="#fff"/></g><defs><filter id="filter0_f_845_2787" x="-96.613" y="-112.143" width="205.933" height="193.933" filterUnits="userSpaceOnUse" color-interpolation-filters="sRGB"><feFlood flood-opacity="0" result="BackgroundImageFix"/><feBlend in="SourceGraphic" in2="BackgroundImageFix" result="shape"/><feGaussianBlur stdDeviation="18.777" result="effect1_foregroundBlur_845_2787"/></filter><filter id="filter1_f_845_2787" x="12.998" y="-1.413" width="28.437" height="28.457" filterUnits="userSpaceOnUse" color-interpolation-filters="sRGB"><feFlood flood-opacity="0" result="BackgroundImageFix"/><feBlend in="SourceGraphic" in2="BackgroundImageFix" result="shape"/><feGaussianBlur stdDeviation="4.706" result="effect1_foregroundBlur_845_2787"/></filter><radialGradient id="paint0_radial_845_2787" cx="0" cy="0" r="1" gradientUnits="userSpaceOnUse" gradientTransform="rotate(130.389 23.984 44.423) scale(63.7213 66.1754)"><stop stop-color="#3719CA"/><stop offset="1" stop-color="#3719CA" stop-opacity="0"/></radialGradient><clipPath id="clip0_845_2787"><rect width="40" height="40" rx="20" fill="#fff"/></clipPath></defs></svg>