<svg width="603" height="497" fill="none" xmlns="http://www.w3.org/2000/svg"><rect y="495" width="527" height="2" rx="1" fill="#1B1B1B"/><path d="m351.838 128.557-10.064-5.027V98.293h-4.6s-5.6-8.336-5.6-8.918c0-.582-4.545-10.373-4.991-13.127-.445-2.755-1.745-8.91-1.345-13.79.4-4.883.454-5.7.454-5.7l-1.818-8.183 1.882-14.072-4.391-2.991s-4.709-4.773-4.709-9.873 1.546-10.41 3.809-12.682c2.264-2.273 10.736-9.136 24.3-7.782 13.564 1.355 29.409 12.955 29.409 12.955l3.182-.91s10.191 1.91 15.327 10.064c5.137 8.155 3.637 30 3.637 30l-1.01 4.037v2.3l-.845 3.509-2.6.282s-.509 7.572-4.145 10.745c-3.637 3.173-3.219 3.746-3.219 3.746v30.209H370.71l-3.481 10-15.391 17.763-2.073-4.609 2.073-2.709Z" fill="#F8EFE5"/><path d="m361.891 124.586-20.119 24.427v-25.482l20.119 1.055Z" fill="#F8EFE5"/><path d="M341.773 127.191v-24.773M384.5 108.101v-37.3M343.219 69.149c-1.818 1.454-5.018 1.745-6.437 1.636-1.718-.127-2.218-1.109-2.191-2.227.123-5.43.664-10.844 1.619-16.19M334.594 46.474a7.503 7.503 0 0 0-8.046.682" stroke="#1B1B1B" stroke-width="1.406" stroke-linecap="round" stroke-linejoin="round"/><path d="M334.181 20.293a37.335 37.335 0 0 0-10.346 28.318s1.819 6.055 1.819 8.182c0 2.127-1.755 9.19 1.427 20.7a87.007 87.007 0 0 0 8.027 18.873 5.076 5.076 0 0 0 4.418 2.572h10.082c2.718 0 5.368-.856 7.573-2.445 6.136-4.4 18.536-13.546 20.582-16.918 2.727-4.546 2.799-11.928 2.799-11.928M380.759 62.491c2.464 0 4.046-1.327 5.909-3.527 1.719-2.009 3.073-5.172 2.382-10.909-1.472-12.318-13.109-10.3-13.109-.682" stroke="#1B1B1B" stroke-width="1.406" stroke-linecap="round" stroke-linejoin="round"/><path d="M376.469 43.983s-9.018 5.455-18.109-12.436M354.484 27.895s-17.154-14.927-28.763-3.318M342.454 46.341c4.245-1.282 10-.909 12.027-.209 2.027.7 6.691 5.61 6.691 5.61M386.812 74.575s6.873-2.39 4.591-11.173M396.156 67.903a14.102 14.102 0 0 0-1.691-4.782M375.939 13.027c16.218 1.819 20.381 16.137 20.381 22.346v17.9" stroke="#1B1B1B" stroke-width="1.406" stroke-linecap="round" stroke-linejoin="round"/><path d="M378.445 17.721s-9.491-9.01-21.645-13.782c-12.155-4.772-29.182-4.172-36.691 5.455C312.6 19.02 318.4 28.666 322 32.266M338.174 78.458c5.79.8 9.618-.564 11.054-.564s0 5.291-4.9 6.019a8.1 8.1 0 0 1-3.836-.464" stroke="#1B1B1B" stroke-width="1.406" stroke-linecap="round" stroke-linejoin="round"/><path d="M348.237 55.54c-.286-1.325.199-2.554 1.082-2.744.884-.19 1.832.73 2.117 2.054.286 1.326-.199 2.554-1.083 2.745-.883.19-1.831-.73-2.116-2.055ZM329.026 56.247c-.286-1.325.199-2.554 1.082-2.744.884-.19 1.832.73 2.117 2.055.286 1.325-.199 2.553-1.082 2.744-.884.19-1.832-.73-2.117-2.055Z" fill="#1B1B1B"/><path d="M264.174 167.651c7.073-5.582 42.636-33.637 47.6-38.637a28.601 28.601 0 0 1 17.2-8.309l6.536-1.027-.909-11.118h7.2v40.454l25.454-30.909 3.482-10h19.218l-1.818 9.091 1.373.537 14.682 5.754c.363.1.727.218 1.082.355l.463.163c7.382 2.791 12.582 10.328 18.764 26.828 8.1 21.59 21.718 65.999 25.454 79.999 1.519 5.7 1 10.273-1.545 13.637-3.264 4.254-9.782 6.409-19.364 6.409-5.518 0-13.8-1.555-22.563-3.209-7.473-1.409-15.937-3-23.509-3.728l1.272.382-3.891 11.618s-23.436 1.682-32.099 8.064a108.66 108.66 0 0 0-15.573 14.291l-40.909-.218-2.936-4.246a20.911 20.911 0 0 1-3.182-16.536l16.272-77.845-1.754 1.018c-8.473 4.882-19.491 11.273-23.864 14-2.545 1.591-8.491 5.309-15.072 5.309a16.904 16.904 0 0 1-6.67-1.416c-2.104-.921-5.567-3.939-5.567-3.939l15.173-26.772Zm148.963 54.836-12.118-27.609-9.554 27.791 21.672-.182Z" fill="#EBC7B5"/><path d="m298.517 195.877 5.991-28.682Z" fill="#F8EFE5"/><path d="m298.517 195.877 5.991-28.682M335.458 118.992l-.873-10.436h7.191v40.455l25.454-30.909 3.491-10h18.482M270.998 198.036a44.146 44.146 0 0 0 5.973-3.209c1.573-.982 12.109-7.163 14.927-8.827" stroke="#1B1B1B" stroke-width="1.406" stroke-linecap="round" stroke-linejoin="round"/><path d="m298.517 195.877 5.991-28.682Z" fill="#F8EFE5"/><path d="m298.517 195.877 5.991-28.682M449.96 230.828c3.636 13.636-4.546 20-20.909 20-12.728 0-39.537-8.182-56.364-7.273a12.09 12.09 0 0 0-4.273.982M355.177 225.301a63.074 63.074 0 0 1 8.418-1.746c13.637-1.818 49.546-1.073 49.546-1.073s-11.509-27.372-23.218-51.236" stroke="#1B1B1B" stroke-width="1.406" stroke-linecap="round" stroke-linejoin="round"/><path d="M340.237 230.667a44.37 44.37 0 0 0 10.473-4.481l20.164-80.055c6.509-27.745 28.427-24.2 34.399-22.291a11.66 11.66 0 0 0-1.081-.354l-13.173-5.191a8.86 8.86 0 0 0-3.391-.618c-11.036.191-18.654 6.5-23.691 22.327-1.945 6.118-14.236 54.409-23.7 90.663ZM329.61 271.44s.909-3.937 3.064-12.128a35.759 35.759 0 0 0 8.709 3.919l-1.818 7.109-9.955 1.1ZM318.602 132.05c2.218-8.254 4.737-12.863 17.273-13.636v1.118c-3.855 1.918-7.273 5.991-8.982 13.855l-26.6 138.709-7.127-.71s22.755-129.299 25.436-139.336Z" fill="#1B1B1B"/><path d="m318.406 254.539-3.745 16.9M341.781 149.012l-20.036 90.454M406.553 222.484l15.455.255" stroke="#1B1B1B" stroke-width="1.406" stroke-linecap="round" stroke-linejoin="round"/><path d="M78.488 251.645c0 11.072 11.136 20.054 24.882 20.054 13.745 0 24.927-8.982 24.927-20.054h-49.81Z" fill="#F8EFE5"/><path d="M103.365 271.699h7.164a8.524 8.524 0 0 1 6.026 2.492 8.527 8.527 0 0 1 2.492 6.026H87.683a8.519 8.519 0 0 1 8.518-8.518h7.164Z" fill="#F8EFE5"/><path d="M103.366 271.699s1.672.509 3.827 1.118c4.282 1.2 10.482 2.728 9.363 1.4l-.109-.118a4.8 4.8 0 0 1-.954-1.282 2.529 2.529 0 0 1 .163-2.418 10.016 10.016 0 0 1 2.937-2.891c.463-.345.982-.7 1.563-1.063l.073-.055.473-.355a17.684 17.684 0 0 1 2.509-2.29l-11.818-2.073-6.973 8.727-1.054 1.3ZM83.526 263.746a15.573 15.573 0 0 1 2.427 2.209l.61.473h.063c.527.327 1.009.654 1.436.972a10.27 10.27 0 0 1 3 2.937 2.525 2.525 0 0 1 .164 2.418c-.23.474-.538.907-.91 1.282l-.108.118c-1.119 1.363 5.081-.2 9.363-1.4 2.155-.609 3.827-1.118 3.827-1.118l-1.036-1.3-6.973-8.728-11.863 2.137Z" fill="#F8EFE5"/><path d="M78.485 249.227h49.773v2.418H78.485v-2.418ZM91.238 272.836h24.255a2.529 2.529 0 0 1 .163-2.418H91.111a2.525 2.525 0 0 1 .127 2.418Z" fill="#1B1B1B"/><path d="M112.462 495.289h23.718l-3.718-1.455-13.41.173-6.254-.173.009-8.136 6.245-7.445v-190.8h-6.59v204.281H98.071l-2.882 3.555h17.273Z" fill="#1B1B1B" stroke="#1B1B1B" stroke-width="1.406" stroke-linecap="round" stroke-linejoin="round"/><path d="M58.595 277.492v10h94.672s-.854-2.918.71-10H58.595Z" fill="#EBC7B5"/><path d="M473.216 439.45c.109 4.539.327 9.084.655 13.636a323.845 323.845 0 0 0 1.818 18.245c.082.61.164 1.21.254 1.819 1 7.206 2.273 14.436 3.819 21.69h29.436a309.807 309.807 0 0 0 3.818-21.69c.091-.609.173-1.209.255-1.819a274.545 274.545 0 0 0 1.818-18.245 289.523 289.523 0 0 0-4.8-77.009 177.525 177.525 0 0 0-1.109-5.382h-29.4a262.761 262.761 0 0 0-1.109 5.382 289.585 289.585 0 0 0-5.455 63.373Z" fill="#F8EFE5"/><path d="M473.876 453.086a323.845 323.845 0 0 0 1.818 18.245c.082.609.163 1.209.254 1.819h37.073c.091-.61.173-1.21.255-1.819a274.612 274.612 0 0 0 1.818-18.245h-41.218ZM478.687 376.077h31.618a177.525 177.525 0 0 0-1.109-5.382h-29.4c-.4 1.794-.77 3.588-1.109 5.382Z" fill="#1B1B1B"/><path d="M189.377 485.856a13.627 13.627 0 0 0-7.981.682l-.528.118h-.327c-1.064 0-2.136 0-3.209-.109-2.318-.146-4.627-.409-6.946-.582-6.736-.509-12.954-.909-19.69 0-12.246 1.682-25.391-.064-37.9-.282v-3.854c0-1.873-.346-4.091 2.954-6.364 3.3-2.273 7.155-3.018 18.182-5.382 11.027-2.364 20.109-10.591 20.109-10.591l.709-6.936 2.318-1.536h12.882v7.954h11.818l7.046.446 3.436 10.909-.982 11.154-1.891 4.373Z" fill="#F8EFE5"/><path d="M115.758 475.492c3.291-2.273 7.155-3.018 18.182-5.382 11.027-2.363 20.109-10.59 20.109-10.59l.709-6.937 2.318-1.563h10.464l1.9 1.018.518 6.936h11.818l7.045.446 3.437 10.909-.982 11.154-2.109 4.827a14.888 14.888 0 0 0-5.573-.191c-4.545.7-20 .528-20.682.419h.119a16.19 16.19 0 0 0-7.737.563c-2.6-.054-5.191-.109-7.745-.136-6.073-.055-12.109-.436-18.182-.691-5.518-.218-11.027 0-16.545-.1v-4.391c.018-1.809-.364-4.027 2.936-6.291Z" fill="#F8EFE5"/><path d="M184.393 494.012h-67.5a4.437 4.437 0 0 1-4.436-4.436v-3.291h76.363v3.291a4.43 4.43 0 0 1-2.731 4.099 4.424 4.424 0 0 1-1.696.337ZM188.823 486.284c4.7-3.191 4.863-27.063-1.3-27.272h-17.564" stroke="#1B1B1B" stroke-width="1.406" stroke-linecap="round" stroke-linejoin="round"/><path d="M169.961 461.701v-8.1a2.551 2.551 0 0 0-1.582-2.392 2.529 2.529 0 0 0-.991-.189h-10.336a2.5 2.5 0 0 0-2.491 2.5v5.454l-6.864 4.382a66.857 66.857 0 0 1-17.673 7.964l-13.79 3.927a5.62 5.62 0 0 0-3.8 5.318v5.682M152.527 460.328l9.254 10.5M146.317 464.438l6.8 8.327M141.245 467.828l4.755 6.4" stroke="#1B1B1B" stroke-width="1.406" stroke-linecap="round" stroke-linejoin="round"/><path d="m169.497 453.559.454 5.454 10.155-1.018s1.354-4.436-1.546-4.436h-9.063Z" fill="#1B1B1B"/><path d="M338.056 306.658c12.091-26.764 22.091-34.918 42.809-34.918h27.273c31.873 0 52.427-8 63.909-25.455-12.564 32.727-34.827 70-49.164 94.054l-.454.764a40.588 40.588 0 0 1-34.7 19.691l-90-.455c17.755-6.818 28.936-28.409 40.327-53.681ZM307.812 324.465l-51.59.136-4.637 4.118s-9.654 16.846-8.818 16.846h33.1c1.064 0 10.5-1.818 14.055-3.8 3.554-1.982 12.99-10.4 12.99-10.4l4.9-6.9Z" fill="#F8EFE5"/><path d="M443.75 265.984c-9.7 3.237-21.482 4.846-35.609 4.846h-27.273c-20 0-30.909 7.273-43.636 35.454-6.764 14.991-13.791 29.718-22.727 40.227M420.005 135.867c57.336 8.673 67.364 55.7 60 88.6" stroke="#1B1B1B" stroke-width="1.406" stroke-linecap="round" stroke-linejoin="round"/><path d="M439.091 156.664a52.156 52.156 0 0 1 11.727 7.8c12.882 11.464 17.273 28.973 15.564 45.845-2.946 29.718-17.273 45.455-60.909 45.455H378.2c-20 0-42.791 10-55.454 38.182-13.691 30.518-21.564 51.581-51.819 51.581h-27.272M272.082 223.284a117.97 117.97 0 0 0 21.082-16.272M164.664 268.512c-7.827 7.609-13.636 18.3-10.909 32.772 3.245 16.819 10.518 35.409 25.454 47.182 14.019 11.036 11.209 8.955 11.209 8.955" stroke="#1B1B1B" stroke-width="1.406" stroke-linecap="round" stroke-linejoin="round"/><path d="M267.229 361.739h120.5a41.318 41.318 0 0 0 20.385-5.389 41.318 41.318 0 0 0 15.069-14.747c17.391-29.164 47.091-78.773 56.364-115.509" stroke="#1B1B1B" stroke-width="1.406" stroke-linecap="round" stroke-linejoin="round"/><path d="M275.862 361.738c8.637 0 24.855 0 24.855 21.973s-3.2 111.582-3.2 111.582h7.273s3.2-93.364 3.2-111.546c0-21.972 21.963-21.972 21.963-21.972l-54.091-.037Z" fill="#1B1B1B" stroke="#1B1B1B" stroke-width="1.406" stroke-linecap="round" stroke-linejoin="round"/><path d="M270.447 361.738s9.837.082 7.155 12.982l-29.927 120.573h5.909l30.581-119.527a20.237 20.237 0 0 1 6.991-11.464l-5.745-2.564h-14.964Z" fill="#1B1B1B" stroke="#1B1B1B" stroke-width="1.406" stroke-linecap="round" stroke-linejoin="round"/><path opacity=".83" d="M373.401 361.737s2.809.127 7.564.091c11.872-.091 18.182 18.464 18.182 18.464l36.681 114.999h7.555s-21.673-68.818-30-94.809c-8.327-25.99-9.218-26.863 13.582-65.181 0 0-9.491 19.036-25.728 23.945-12.036 5.409-27.836 2.491-27.836 2.491Z" fill="#1B1B1B" stroke="#1B1B1B" stroke-width="1.406" stroke-linecap="round" stroke-linejoin="round"/><path d="M285.414 361.738h-49.445" stroke="#1B1B1B" stroke-width="1.406" stroke-linecap="round" stroke-linejoin="round"/><path d="M184.178 385.947c1.082-12.9-2.227-24.873-16.227-48.4a101.547 101.547 0 0 0 14.791 13.691c7.736 5.563 7.691 6.182 7.691 6.182l4.755 17.836-8.637 10.691h-2.373Z" fill="#1B1B1B" stroke="#1B1B1B" stroke-width="1.406" stroke-linecap="round" stroke-linejoin="round"/><path d="M364.724 247.65c1.818-.909 3.764-3.636 3.764-3.636s1.591-6.755-1.882-11.337c-3.473-4.581-11.436-7.372-11.436-7.372l-20.273 7.681-11.873 5.228-9.727 9.436-7.673 11.664.828 2.727 1.518.382s2.554-.264 2.554-.909c0-.646 9.882-9.091 9.882-9.091l8.073-7.046-2.027 8.064a3.966 3.966 0 0 0 .963 3.636c1.518 1.519 7.5 4.091 7.5 4.091l8.682 2.827h4.691s2.609-4.209 2.609-5.799c0-1.591-1.627-4.755-1.627-4.755a74.154 74.154 0 0 0 15.454-5.791Z" fill="#F8EFE5"/><path d="M329.626 242.059s-2.39 7.99-3.109 12.136a3.42 3.42 0 0 0 2.237 3.845l3.918 1.273" stroke="#1B1B1B" stroke-width="1.406" stroke-linecap="round" stroke-linejoin="round"/><path d="M334.97 244.273s-2.391 7.991-3.1 12.137a3.4 3.4 0 0 0 2.227 3.845l3.919 1.273" stroke="#1B1B1B" stroke-width="1.406" stroke-linecap="round" stroke-linejoin="round"/><path d="M340.275 247.457a101.539 101.539 0 0 0-3.055 11.173 3.417 3.417 0 0 0 2.228 3.854l5.154 1.673a3.636 3.636 0 0 0 4.355-1.936l1.718-3.537a2.727 2.727 0 0 0-.709-3.3l-.509-.418a2.392 2.392 0 0 0-3.318.282l-1.819 2.018" stroke="#1B1B1B" stroke-width="1.406" stroke-linecap="round" stroke-linejoin="round"/><path d="M368.406 244.539c-2.172.991-3.227 2.073-5.382 3.918a21.339 21.339 0 0 1-7.855 4.103c-2.876.804-5.89.995-8.845.561l-2.727 5.745M328.35 246.548l-8.064 5.363a5.364 5.364 0 0 0-.563.555l-7.928 8.372a4.605 4.605 0 0 1-4.99 1.346l-.346-.127a1.832 1.832 0 0 1-.67-.459 1.82 1.82 0 0 1-.157-2.269c2.145-3.054 5.263-8.1 9.809-12.891 5.454-5.736 7.927-7.927 11.818-9.563 7.209-3.037 17.273-8.482 27.936-11.555" stroke="#1B1B1B" stroke-width="1.406" stroke-linecap="round" stroke-linejoin="round"/><path d="M368.413 244.537s3.2-16.427-13.237-19.236" stroke="#1B1B1B" stroke-width="1.406" stroke-linecap="round" stroke-linejoin="round"/><path d="M206.102 413.323c4.873 13.536 8.182 22.4 8.182 22.4 13.964 1.945 23.591-2.046 29.091-11.728L232.02 373.25" fill="#1B1B1B"/><path d="M206.102 413.323c4.873 13.536 8.182 22.4 8.182 22.4 13.964 1.945 23.591-2.046 29.091-11.728L232.02 373.25" stroke="#1B1B1B" stroke-width="1.406" stroke-linecap="round" stroke-linejoin="round"/><path d="m201.929 382.518 31.482-80.764 19.636-13.636-4.336-6.082-42.364-5.564c-16.227-2.154-36.364 9.555-23.291 56.228 4.209 15.054 6.546 24.309 12.191 41.127" fill="#1B1B1B"/><path d="m201.929 382.518 31.482-80.764 19.636-13.636-4.336-6.082-42.364-5.564c-16.227-2.154-36.364 9.555-23.291 56.228 4.209 15.054 6.546 24.309 12.191 41.127" stroke="#1B1B1B" stroke-width="1.406" stroke-linecap="round" stroke-linejoin="round"/><path d="M332.688 278.293h-93.046a23.634 23.634 0 0 0-21.345 15.873l-56.518 154.845c7.954 6.309 17.036 10 28.182 10l61.972-131a6.187 6.187 0 0 1 5.6-3.545h50.282c7.945-14.891 10.436-20.573 14.927-30.519a60.283 60.283 0 0 1 9.946-15.654Z" fill="#1B1B1B" stroke="#1B1B1B" stroke-width="1.406" stroke-linecap="round" stroke-linejoin="round"/><path d="m210.873 417.266 25.236-53.364M240.852 278.348h-1.21a23.633 23.633 0 0 0-21.345 15.818l-38.673 100.909" stroke="#F8EFE5" stroke-width="1.406" stroke-linecap="round" stroke-linejoin="round"/><path d="M389.501 54v-1.5c0-.97.5-3 0-4l15.401 14.966a1.001 1.001 0 0 1 0 1.4l-1.382 1.418a.992.992 0 0 1-1.391 0L389.501 54ZM369.003 29.202 379.5 39.5c-.642.232-1.016.518-1.5 1s-.766 1.358-1 2l-10.724-10.398-3.245-5.891 5.972 2.99Z" fill="#EBC7B5"/><path d="M402.153 66.34a.994.994 0 0 0 1.391 0l1.382-1.428a.98.98 0 0 0 .293-.695.978.978 0 0 0-.293-.696l-6.209-5.873a.969.969 0 0 1-.136 1.155l-1.373 1.418a.992.992 0 0 1-1.4 0l6.345 6.118ZM363.027 26.191l3.246 5.891L369 29.228l-5.973-3.037Z" fill="#1B1B1B"/><path d="M332.683 278.292H172.974a6.067 6.067 0 0 1-5.536-3.572l-38.554-85.3a4.081 4.081 0 0 1 3.636-5.764l116.536-1.636a6.897 6.897 0 0 1 6.364 4.073l38.181 85.345h44.891l-5.809 6.854Z" fill="#F8EFE5" stroke="#1B1B1B" stroke-width="1.4" stroke-linecap="round" stroke-linejoin="round"/><path d="M200.58 241.412c-6.978-5.822-9.349-14.479-5.296-19.337 4.052-4.857 12.994-4.075 19.972 1.747 6.978 5.822 9.349 14.479 5.296 19.336-4.052 4.858-12.995 4.076-19.972-1.746ZM150.909 209.92h17.2l-7.763-17.209h-17.209l7.772 17.209Z" fill="#EBC7B5"/><path d="M144.425 195.447h17.2l-1.282-2.736h-17.209l1.291 2.736Z" fill="#1B1B1B"/><path d="M31.185 426.129c0 15.4 12.727 27.882 28.427 27.882s28.427-12.482 28.427-27.882H31.185Z" fill="#F8EFE5"/><path d="M31.185 422.582h56.854v3.536H31.185v-3.536Z" fill="#1B1B1B"/><path d="M89.64 438.129H31.178M77.226 438.129l18.672 56.709M43.594 438.129l-18.828 57.163" stroke="#1B1B1B" stroke-width="1.638" stroke-linecap="round" stroke-linejoin="round"/><path d="M195.181 488.1v-7.209l2.272-3.991 6.464-4.255 8.918-22.236-1.445-7.791 1.945-3.2 16.546.909 3.127 1.727 1.036 2.6 2.382-2.372 6.636-7.791-.563-4.018s2.427 0 4.1 3.091c1.672 3.09 5.409 8.427 5.409 15.072 0 6.646-18.691 30.955-18.691 30.955l-6.546 8.482-31.59.027Z" fill="#F8EFE5"/><path d="m235.306 448.786-1.69-5.5a4.198 4.198 0 0 0-3.755-2.955l-14.145-.909a4.217 4.217 0 0 0-4.384 3.328 4.197 4.197 0 0 0 .038 1.908l1.464 5.755-7.473 19.882a7.492 7.492 0 0 1-3.2 3.818l-4.691 2.791a4.647 4.647 0 0 0-2.273 3.991v7.209h31.573s20.473-25.609 25-37.046a16.697 16.697 0 0 0-1.127-9.418 111.584 111.584 0 0 0-5.218-10.109s-.464-1.027-2.928-1.027c0 0 3.019 6.364-7.991 13.064" stroke="#1B1B1B" stroke-width="1.406" stroke-linecap="round" stroke-linejoin="round"/><path d="M195.182 488.105v5.327a1.871 1.871 0 0 0 .549 1.321 1.853 1.853 0 0 0 1.324.543l32.145-.073a3.403 3.403 0 0 0 2.828-1.491l23.536-34.527a6.113 6.113 0 0 0 .836-5.163c-.518-1.737-2.445-3.918-3.809-5.991M212.265 453.285l16.118.473M209.299 460.578l15.873.5M206.103 468.102l14.436.318M196.618 478.258h22.109M241.173 427.285l1.818 5.873a3.19 3.19 0 0 1-.409 2.354 20.356 20.356 0 0 1-8.054 8.055M217.542 436.066l1.091 3.219" stroke="#1B1B1B" stroke-width="1.406" stroke-linecap="round" stroke-linejoin="round"/></svg>