<svg width="189" height="55" fill="none" xmlns="http://www.w3.org/2000/svg"><g opacity=".9"><path d="m9.3 16.872 3.602 1.823a4.584 4.584 0 0 0 4.16-.227l3.403-2.243a4.626 4.626 0 0 0 1.391-1.649c.329-.653.5-1.375.5-2.108l-.216-4.112a4.706 4.706 0 0 0-.72-2.038 4.635 4.635 0 0 0-1.55-1.49l-3.6-1.87a4.559 4.559 0 0 0-4.16.22L8.707 5.42a4.643 4.643 0 0 0-1.39 1.65 4.707 4.707 0 0 0-.501 2.107l.216 4.112a4.7 4.7 0 0 0 .707 2.069c.394.623.93 1.142 1.562 1.514ZM31.026 22.197l-3.601-1.87a4.57 4.57 0 0 0-4.15.228l-3.44 2.244a4.681 4.681 0 0 0-1.385 1.65 4.744 4.744 0 0 0-.506 2.106l.216 4.112c.079.727.325 1.425.72 2.038a4.636 4.636 0 0 0 1.55 1.49l3.6 1.824a4.543 4.543 0 0 0 4.151-.219l3.412-2.243a4.697 4.697 0 0 0 1.386-1.656 4.76 4.76 0 0 0 .505-2.11l-.216-4.102a4.724 4.724 0 0 0-.717-2.012 4.655 4.655 0 0 0-1.525-1.48ZM42.137 39.539l-3.602-1.824a4.56 4.56 0 0 0-4.16.219l-3.402 2.243a4.66 4.66 0 0 0-1.388 1.65 4.725 4.725 0 0 0-.503 2.106l.216 4.112c.086.716.334 1.401.724 2.004.39.602.913 1.105 1.527 1.47l3.601 1.824a4.586 4.586 0 0 0 4.16-.228l3.412-2.243a4.645 4.645 0 0 0 1.384-1.65 4.707 4.707 0 0 0 .498-2.107l-.19-4.039a4.696 4.696 0 0 0-.72-2.045 4.624 4.624 0 0 0-1.557-1.492Z" fill="#3C8AAC"/><path d="m15.603 29.327-.17-3.2a4.742 4.742 0 0 1 .505-2.106 4.68 4.68 0 0 1 1.385-1.651l6.636-4.367a4.575 4.575 0 0 1 4.15-.228l2.827 1.458a4.56 4.56 0 0 0 4.16-.218l3.403-2.253a4.652 4.652 0 0 0 1.388-1.65c.329-.652.501-1.373.503-2.106l-.216-4.103a4.708 4.708 0 0 0-.717-2.043 4.636 4.636 0 0 0-1.552-1.495l-3.601-1.869a4.586 4.586 0 0 0-4.16.228L26.67 5.931a4.645 4.645 0 0 0-1.384 1.65 4.707 4.707 0 0 0-.498 2.106l.162 3.2c0 .732-.17 1.454-.498 2.106a4.646 4.646 0 0 1-1.384 1.651l-6.635 4.367a4.567 4.567 0 0 1-4.16.22l-2.818-1.45a4.56 4.56 0 0 0-4.16.218l-3.403 2.243a4.645 4.645 0 0 0-1.39 1.65A4.708 4.708 0 0 0 0 25.998l.216 4.112c.077.729.322 1.429.717 2.044a4.626 4.626 0 0 0 1.552 1.493l3.601 1.824a4.587 4.587 0 0 0 4.16-.228l3.403-2.243a4.65 4.65 0 0 0 1.405-1.604c.34-.637.527-1.346.55-2.07ZM51.249 26.245a4.742 4.742 0 0 0-.721-2.04 4.672 4.672 0 0 0-1.548-1.498l-3.602-1.823a4.594 4.594 0 0 0-4.16.228l-3.403 2.243a4.663 4.663 0 0 0-1.387 1.65 4.726 4.726 0 0 0-.503 2.106l.17 3.21a4.726 4.726 0 0 1-.503 2.106 4.663 4.663 0 0 1-1.387 1.65l-6.627 4.358a4.593 4.593 0 0 1-4.16.228l-2.827-1.458a4.568 4.568 0 0 0-4.15.227L13 39.666a4.682 4.682 0 0 0-1.385 1.652 4.744 4.744 0 0 0-.505 2.105l.215 4.112c.08.727.326 1.425.72 2.038a4.636 4.636 0 0 0 1.55 1.49l3.601 1.87a4.541 4.541 0 0 0 4.15-.22l3.413-2.242a4.69 4.69 0 0 0 1.384-1.652 4.753 4.753 0 0 0 .507-2.105l-.171-3.21a4.715 4.715 0 0 1 .502-2.106 4.653 4.653 0 0 1 1.388-1.65l6.627-4.367a4.567 4.567 0 0 1 4.16-.219l2.818 1.45a4.56 4.56 0 0 0 4.16-.219l3.412-2.243A4.655 4.655 0 0 0 50.93 32.5a4.716 4.716 0 0 0 .499-2.105l-.18-4.149Z" fill="#3C8AAC"/><path d="M63.655 25.8c0 9.026 6.711 16.71 17.681 16.71 4.906 0 8.146-1.482 11.155-3.75l-2.36-4.49c-2.269 1.713-5.277 2.963-8.749 2.963-7.36 0-11.664-5.138-11.664-11.433s4.305-11.433 11.664-11.433c3.472 0 6.48 1.296 8.748 2.963l2.36-4.444c-3.008-2.268-6.248-3.795-11.154-3.795-10.97 0-17.681 7.683-17.681 16.709ZM102.648 42V18.58h-5.693V42h5.693Zm-6.526-30.363c0 2.036 1.574 3.564 3.703 3.564 2.129 0 3.795-1.528 3.795-3.564 0-2.037-1.666-3.61-3.795-3.61-2.13 0-3.703 1.573-3.703 3.61Zm18.681 6.942h-5.6V42h5.693V31.17c0-6.48 3.471-7.638 5.554-7.638.741 0 1.805.139 2.685.463v-5.6c-.695-.186-1.158-.325-1.944-.325-2.5 0-5.601 1.713-6.388 5.693V18.58Zm10.092 11.85c0 6.804 5.045 12.08 13.191 12.08 2.268 0 5.415-.509 9.026-3.194l-2.639-4.026c-2.406 1.944-5.23 2.129-6.109 2.129-4.536 0-7.73-2.963-7.73-7.128 0-4.212 3.194-7.128 7.73-7.128.879 0 3.703.139 6.109 2.129l2.639-4.073c-3.611-2.639-6.758-3.148-9.026-3.148-8.285 0-13.191 5.416-13.191 12.359ZM157.206 42V8.535h-5.693V42h5.693Zm25.763-7.174c-1.991 1.805-4.166 2.87-7.082 2.87-5.045 0-8.054-2.917-8.054-6.62h19.44c0-9.025-5.971-13.006-12.312-13.006-7.405 0-12.821 5.462-12.821 12.312 0 6.665 5.045 12.127 13.469 12.127 3.611 0 7.452-.972 10.6-4.49l-3.24-3.193Zm-8.008-12.22c2.407 0 5.601 1.019 6.48 4.629h-13.33c1.203-3.61 4.351-4.629 6.85-4.629Z" fill="#1B1B1B"/></g></svg>