<svg width="602" height="439" viewBox="0 0 602 439" fill="none" xmlns="http://www.w3.org/2000/svg">
<path d="M125.131 133.172C125.376 131.97 125.908 130.845 126.682 129.892C127.456 128.94 128.449 128.19 129.576 127.704C141.171 122.727 160 114.326 160 114.326C179.234 107.016 225.005 124.975 225.005 124.975C226.205 125.355 227.241 126.13 227.946 127.172L266.153 183.457L280.359 187.04C279.241 188.763 278.575 190.739 278.424 192.787L278.382 192.897C277.875 194.241 277.173 195.526 276.692 196.878C276.21 198.23 275.787 200.14 275.441 200.858C274.41 202.988 273.075 204.856 272.314 207.146C272.093 207.851 271.912 208.567 271.773 209.293C271.14 210.314 270.707 211.447 270.497 212.631C262.046 211.312 254.88 210.095 251.592 209.25C248.305 208.405 243.09 202.929 237.648 195.847C234.267 206.833 230.465 218.454 230.465 227.116C230.44 236.491 231.576 245.833 233.845 254.929C233.845 254.929 223.044 255.115 218.726 259.434C214.408 263.752 146.233 283.664 146.233 283.664C146.233 283.664 143.639 276.903 146.664 256.104C148.591 242.903 151.042 243.579 146.749 228.815C133.004 227.168 115.252 225.806 115.252 204.501C115.235 183.846 122.638 145.494 125.131 133.172Z" fill="#3C8AAC"/>
<path d="M203.624 323.292C202.384 322.193 200.952 321.333 199.399 320.757C190.882 317.825 181.953 316.268 172.947 316.142C150.56 304.725 146.25 283.622 146.25 283.622C197.801 243.622 276.117 244.18 304.284 244.18C307.665 244.18 310.158 244.915 312 246.183C307.496 244.434 301.969 244.822 297.515 246.563C294.312 247.814 290.416 249.318 287.991 251.803C287.626 252.182 287.282 252.579 286.96 252.995L286.782 253.138C285.809 253.874 284.954 254.755 284.247 255.75C282.841 256.281 281.545 257.069 280.427 258.074C278.585 259.764 276.801 261.252 275.568 263.508C275.035 264.488 274.57 265.519 274.063 266.525C272.795 267.457 271.727 268.635 270.923 269.988C270.118 271.341 269.594 272.842 269.381 274.402C269.263 274.545 269.136 274.689 269.027 274.841C268.455 275.638 267.96 276.487 267.548 277.377C267.497 277.47 267.353 277.681 267.201 277.917C265.601 279.168 264.499 280.948 264.091 282.938C263.581 283.762 263.199 284.66 262.959 285.6C262.9 285.794 262.857 285.98 262.815 286.174C262.773 286.369 262.638 286.445 262.561 286.58C259.401 292.496 255.615 297.93 253.223 304.235C251.916 307.958 250.929 311.786 250.274 315.678C250.274 315.678 225.808 323.901 203.624 323.292Z" fill="#1B1B1B"/>
<path d="M209.469 162.778L183.549 133.385L161.78 112.569V107H165.067L179.239 108.411L202.057 108.969H207.111L206.055 120.167L209.469 162.778Z" fill="#F8EFE5"/>
<path d="M161.782 112.569V107L179.242 108.411V128.221" stroke="#1B1B1B" stroke-width="1.4" stroke-linecap="round" stroke-linejoin="round"/>
<path d="M217.008 188.168L199.444 177.459L159.505 147.077L151.054 117.21L161.753 112.57C161.753 112.57 179.585 127.783 210.287 163.903L217.008 188.168ZM217.008 188.168L225.008 146.168" stroke="#1B1B1B" stroke-width="1.4" stroke-linecap="round" stroke-linejoin="round"/>
<path d="M209.652 163.124C209.652 148.115 206.272 118.688 206.272 118.688L217.022 122.068L225.008 145.909" stroke="#1B1B1B" stroke-width="1.4" stroke-linecap="round" stroke-linejoin="round"/>
<path d="M239.445 158.91C239.445 158.91 241.93 163.16 242.496 168.164C243.062 173.168 242.506 176.668 242.506 176.668" stroke="#1B1B1B" stroke-width="1.4" stroke-linecap="round" stroke-linejoin="round"/>
<path d="M242.5 176.648C242.5 176.648 240.734 185.353 237.091 197.565" stroke="#1B1B1B" stroke-width="1.4" stroke-linecap="round" stroke-linejoin="round"/>
<path d="M217.273 253.91C212.118 223.865 217.273 194.48 217.273 194.48V186.387" stroke="#1B1B1B" stroke-width="1.4" stroke-linecap="round" stroke-linejoin="round"/>
<path d="M257.837 189.275L266.161 183.418L274.062 185.412" stroke="#1B1B1B" stroke-width="1.4" stroke-linecap="round" stroke-linejoin="round"/>
<path d="M266.164 183.418L261.288 176.234" stroke="#1B1B1B" stroke-width="1.4" stroke-linecap="round" stroke-linejoin="round"/>
<path d="M199.19 108.967H207.117L206.061 120.164" stroke="#1B1B1B" stroke-width="1.4" stroke-linecap="round" stroke-linejoin="round"/>
<path d="M310.678 202.832C305.464 202.832 300.334 207.058 299.21 212.272C298.086 217.486 301.399 221.703 306.605 221.703C308.437 221.639 310.231 221.162 311.852 220.308C313.474 219.453 314.881 218.243 315.969 216.768" stroke="#1B1B1B" stroke-width="1.4" stroke-linecap="round" stroke-linejoin="round"/>
<path d="M257.828 246.239L287.779 166.646C288.717 164.153 290.499 162.068 292.814 160.752C295.13 159.437 297.834 158.974 300.455 159.445L348.685 168.158C349.75 168.351 350.758 168.783 351.631 169.421C352.505 170.06 353.223 170.889 353.73 171.845C354.236 172.801 354.52 173.86 354.558 174.941C354.596 176.023 354.388 177.099 353.95 178.089L345.246 197.721" stroke="#1B1B1B" stroke-width="1.4" stroke-linecap="round" stroke-linejoin="round"/>
<path d="M321.58 251.221L335 221.566" stroke="#1B1B1B" stroke-width="1.4" stroke-linecap="round" stroke-linejoin="round"/>
<path d="M332.164 221.592C332.164 221.592 322.75 214.705 321.575 213.708C320.401 212.71 317.899 210.378 317.899 210.378L319.302 208.341L316.386 204.902C316.386 204.902 315.102 204.488 315.905 202.011C316.707 199.535 317.907 200.972 317.907 200.972L315.516 197.718L318.44 195.766L330.339 200.972L340.708 204.749L341.553 203.456L332.747 195.098C332.747 195.098 325.513 189.926 325.091 189.504C324.668 189.081 324.896 185.971 324.896 185.971L326.587 185.059L333.424 189.369L345.255 197.744C346.129 198.21 346.862 198.902 347.377 199.748C347.893 200.593 348.173 201.562 348.188 202.552C348.187 205.933 345.263 211.958 345.263 211.958L339.922 220.232C339.17 220.766 338.325 221.156 337.429 221.381C336.272 221.559 332.164 221.592 332.164 221.592Z" fill="#F8EFE5"/>
<path d="M346.085 195.764L355.669 189.214C356.221 188.836 356.634 188.288 356.844 187.653C357.055 187.018 357.052 186.332 356.835 185.699V185.699C356.739 185.418 356.583 185.162 356.378 184.948C356.174 184.734 355.925 184.567 355.649 184.459C355.374 184.35 355.078 184.303 354.782 184.32C354.486 184.337 354.198 184.418 353.936 184.558L349.888 187.161" fill="#F8EFE5"/>
<path d="M346.085 195.764L355.669 189.214C356.221 188.836 356.634 188.288 356.844 187.653C357.055 187.018 357.052 186.332 356.835 185.699V185.699C356.739 185.418 356.583 185.162 356.378 184.948C356.174 184.734 355.925 184.567 355.649 184.459C355.374 184.35 355.078 184.303 354.782 184.32C354.486 184.337 354.198 184.418 353.936 184.558L349.888 187.161" stroke="#1B1B1B" stroke-width="1.4" stroke-linecap="round" stroke-linejoin="round"/>
<path d="M338.204 210.783L331.308 207.571C329.415 206.726 327.555 205.729 325.747 204.698L316.721 199.543C316.545 199.44 316.391 199.303 316.269 199.14C316.147 198.976 316.06 198.789 316.012 198.591C315.965 198.393 315.958 198.187 315.993 197.986C316.028 197.784 316.103 197.593 316.214 197.422L316.586 196.855C316.879 196.411 317.321 196.086 317.832 195.938C318.343 195.791 318.891 195.832 319.375 196.052L326.846 199.492C328.536 200.27 330.268 200.977 332.043 201.613L340.891 204.453C341.677 204.732 341.424 204.36 340.891 203.743L336.911 198.9C335.644 197.519 334.27 196.239 332.804 195.072L325.147 189.478C324.697 189.151 324.391 188.665 324.292 188.118C324.193 187.572 324.308 187.008 324.614 186.545L324.953 185.945C325.174 185.612 325.515 185.376 325.906 185.288C326.296 185.2 326.705 185.266 327.048 185.472L334.037 189.697C337.057 191.524 339.948 193.554 342.691 195.774L345.243 197.717C346.746 198.934 347.782 200.633 348.176 202.526V202.526C348.402 203.644 348.4 204.796 348.169 205.913C347.938 207.03 347.483 208.088 346.832 209.025L341.762 218.372C341.005 219.441 339.985 220.297 338.801 220.857C337.616 221.417 336.307 221.661 335.001 221.566C333.446 221.465 331.941 220.977 330.623 220.146C326.414 217.599 322.468 214.64 318.842 211.315V211.315C318.53 211.028 318.33 210.639 318.277 210.218C318.225 209.797 318.323 209.371 318.555 209.016V209.016C318.709 208.784 318.908 208.584 319.14 208.429C319.372 208.275 319.633 208.168 319.907 208.115C320.18 208.062 320.462 208.065 320.735 208.122C321.008 208.18 321.267 208.291 321.496 208.45L327.057 212.354" stroke="#1B1B1B" stroke-width="1.4" stroke-linecap="round" stroke-linejoin="round"/>
<path d="M319.278 201.368C318.733 201.034 318.082 200.918 317.456 201.043C316.829 201.169 316.272 201.526 315.898 202.044V202.044C315.737 202.265 315.622 202.515 315.56 202.781C315.497 203.046 315.488 203.321 315.533 203.591C315.577 203.86 315.675 204.117 315.821 204.348C315.966 204.579 316.156 204.778 316.38 204.935L321.197 208.315C325.095 211.031 329.112 213.566 333.248 215.921L334 216.344" stroke="#1B1B1B" stroke-width="1.4" stroke-linecap="round" stroke-linejoin="round"/>
<path d="M143.124 196.351L150.375 159.242" stroke="#1B1B1B" stroke-width="1.4" stroke-linecap="round" stroke-linejoin="round"/>
<path d="M202.187 132.672L208.643 143.616L209.641 163.459L195.899 147.732L195.426 133.703" fill="#1B1B1B"/>
<path d="M195.424 133.701L200.723 133.312C201.115 133.283 201.494 133.158 201.827 132.949C202.16 132.74 202.437 132.452 202.633 132.112C202.794 131.836 202.898 131.531 202.94 131.215C202.982 130.899 202.961 130.577 202.878 130.269L200.985 123.171C200.779 122.406 200.328 121.73 199.7 121.248C199.073 120.765 198.304 120.502 197.512 120.5H187.607C187.235 120.5 186.866 120.574 186.522 120.716C186.178 120.859 185.865 121.068 185.602 121.332C185.339 121.596 185.131 121.909 184.989 122.254C184.847 122.598 184.775 122.967 184.776 123.34C184.778 124.051 185.046 124.735 185.528 125.258L192.145 132.407C192.558 132.857 193.068 133.207 193.636 133.431C194.204 133.655 194.816 133.747 195.424 133.701V133.701Z" fill="#1B1B1B"/>
<path d="M193.123 134.485C197.407 133.158 201.168 132.6 203.906 133.454" stroke="#F8EFE5" stroke-width="1.4" stroke-miterlimit="10"/>
<path d="M195.577 138.29L200.072 137.656C200.287 137.622 200.507 137.664 200.694 137.775C200.881 137.886 201.023 138.06 201.095 138.265C201.141 138.397 201.158 138.537 201.143 138.677C201.129 138.816 201.083 138.95 201.011 139.07C200.938 139.19 200.84 139.292 200.723 139.369C200.606 139.446 200.473 139.496 200.334 139.515L195.644 140.166L195.577 138.29Z" fill="#3C8AAC"/>
<path d="M384.575 296.388H582.008V283.754H364.09" fill="#F8EFE5"/>
<path d="M575.25 282.698V273.258H545.933L543.136 283.754L575.25 282.698Z" fill="#3C8AAC"/>
<path d="M570.047 296.379V428.472C570.047 430.713 569.157 432.863 567.572 434.448C565.987 436.033 563.837 436.923 561.596 436.923H505.489C503.248 436.923 501.099 436.033 499.514 434.448C497.929 432.863 497.038 430.713 497.038 428.472V296.379" stroke="#1B1B1B" stroke-width="1.4" stroke-linecap="round" stroke-linejoin="round"/>
<path d="M439.469 296.379V428.472C439.469 430.713 438.578 432.863 436.994 434.448C435.409 436.033 433.259 436.923 431.018 436.923H374.92" stroke="#1B1B1B" stroke-width="1.4" stroke-linecap="round" stroke-linejoin="round"/>
<path d="M384.575 287.343H582.008V282.695H364.09" fill="#1B1B1B"/>
<path d="M570.031 389.037H497.074" stroke="#1B1B1B" stroke-width="1.4" stroke-linecap="round" stroke-linejoin="round"/>
<path d="M570.031 340.965H497.074" stroke="#1B1B1B" stroke-width="1.4" stroke-linecap="round" stroke-linejoin="round"/>
<path d="M439.469 389.037H418.274" stroke="#1B1B1B" stroke-width="1.4" stroke-linecap="round" stroke-linejoin="round"/>
<path d="M439.469 340.965H426.513" stroke="#1B1B1B" stroke-width="1.4" stroke-linecap="round" stroke-linejoin="round"/>
<path d="M4 437.852L601 437.852" stroke="#1B1B1B" stroke-width="1.4" stroke-linecap="round" stroke-linejoin="round"/>
<path d="M246.229 211.938C252.049 217.46 258.183 222.641 264.602 227.454" stroke="#1B1B1B" stroke-width="1.4" stroke-linecap="round" stroke-linejoin="round"/>
<path d="M341.867 437.848H107.909C41.9909 437.848 1.00341 408.767 1.00341 353.411C1.00341 298.056 14.9476 259.535 28.4692 216.256C43.8586 167.002 68.806 131.794 122.893 129.656" stroke="#1B1B1B" stroke-width="1.4" stroke-linecap="round" stroke-linejoin="round"/>
<path d="M341.023 271.691C374.895 288.594 384.571 296.378 384.571 296.378C394.953 303.371 403.456 312.81 409.332 323.863C415.208 334.916 418.276 347.244 418.266 359.762C418.23 371.348 415.648 382.786 410.704 393.264C405.759 403.743 398.572 413.006 389.65 420.399" stroke="#1B1B1B" stroke-width="1.4" stroke-linecap="round" stroke-linejoin="round"/>
<path d="M219.258 331.757C219.258 331.757 196.508 311.01 143.199 316.647C121.141 318.971 105.515 321.599 87.4218 322.072" stroke="#1B1B1B" stroke-width="1.4" stroke-linecap="round" stroke-linejoin="round"/>
<path d="M130.867 338.626C123.65 339.248 116.382 338.378 109.516 336.07C102.649 333.763 96.3305 330.068 90.953 325.214C77.8949 313.383 63.1606 303.547 47.2273 296.023" stroke="#1B1B1B" stroke-width="1.4" stroke-linecap="round" stroke-linejoin="round"/>
<path d="M309.318 437.639H214.523C214.523 437.639 212.258 428.892 214.294 416.925L216.585 408.567L218.866 407.418L221.469 408.905C221.469 408.905 226.16 416.156 237.197 417.213C248.234 418.269 253.102 421.388 257.75 421.32C262.398 421.252 262.136 420.238 263.167 419.207C263.624 418.651 264.271 418.284 264.984 418.176L278.683 422.055L285.79 418.176L303.115 422.528L307.34 426.568L309.352 430.667L309.318 437.639Z" fill="#F8EFE5"/>
<path d="M285.806 418.179C285.806 418.179 273.797 413.717 270.382 410.311C265.126 405.046 266.47 398.902 276.797 377.917C292.507 346.006 325.356 303.141 333.174 284.227C340.991 265.313 334.627 253.253 322.559 251.369C320.548 251.056 318.334 250.752 315.942 250.523" stroke="#1B1B1B" stroke-width="1.4" stroke-linecap="round" stroke-linejoin="round"/>
<path d="M287.498 437.638H309.336V430.666C308.764 428.58 307.647 426.684 306.102 425.171C304.556 423.658 302.636 422.582 300.538 422.055C296.313 420.998 290.828 419.579 285.808 418.176C283.949 419.021 283.003 421.81 277.543 421.759" stroke="#1B1B1B" stroke-width="1.4" stroke-linecap="round" stroke-linejoin="round"/>
<path d="M309.328 432.359H293.432" stroke="#1B1B1B" stroke-width="1.4" stroke-linecap="round" stroke-linejoin="round"/>
<path d="M263.97 418.178L252.68 414.291C251.385 413.856 250.18 413.192 249.122 412.33C246.324 409.98 243.206 404.639 254.961 377.916C269.328 345.379 305.803 292.728 313.62 273.822C321.437 254.917 316.476 245.316 304.256 245.316C286.019 245.316 266.793 272.47 256.018 298.88C245.243 325.291 237.079 376.961 221.69 404.85C221.149 405.822 220.667 406.752 220.236 407.656" stroke="#1B1B1B" stroke-width="1.4" stroke-linecap="round" stroke-linejoin="round"/>
<path d="M214.534 437.64H287.492V430.668C286.92 428.582 285.804 426.686 284.258 425.173C282.712 423.659 280.792 422.584 278.695 422.056C274.469 421 268.984 419.58 263.965 418.177C263.234 419.323 262.18 420.227 260.936 420.774C259.692 421.322 258.314 421.489 256.976 421.254C220.23 415.98 220.23 407.656 220.23 407.656C220.23 407.656 216.994 406.295 215.802 410.191C211.906 422.792 214.534 437.64 214.534 437.64Z" stroke="#1B1B1B" stroke-width="1.4" stroke-linecap="round" stroke-linejoin="round"/>
<path d="M287.219 432.359H221.951" stroke="#1B1B1B" stroke-width="1.4" stroke-linecap="round" stroke-linejoin="round"/>
<path d="M153.14 315.865C153.14 315.865 158.938 305.546 158.938 298.963C158.938 292.379 146.193 275.621 129.427 266.003C112.66 256.386 98.0648 257.974 89.0475 263.045C80.0303 268.116 63.3733 290.334 67.0749 306.992L86.8249 321.553C92.5622 321.73 98.3049 321.567 104.023 321.063C112.237 320.226 153.14 315.865 153.14 315.865Z" fill="#1B1B1B"/>
<path d="M97.8828 321.553V317.327C97.8809 316.677 97.6776 316.044 97.3007 315.514C96.9239 314.984 96.392 314.584 95.7785 314.369C93.7756 313.643 90.167 312.992 84.2428 313.905" stroke="#F8EFE5" stroke-width="1.4" stroke-linecap="round" stroke-linejoin="round"/>
<path d="M91.0625 313.49C89.6 312.977 88.2819 312.12 87.2188 310.992C86.1556 309.864 85.3785 308.498 84.9524 307.008" stroke="#F8EFE5" stroke-width="1.4" stroke-linecap="round" stroke-linejoin="round"/>
<path d="M135.875 317.446V314.235C135.875 313.475 135.65 312.731 135.227 312.099C134.804 311.467 134.203 310.975 133.5 310.686C131.911 310.026 129.41 309.57 125.658 310.238" stroke="#F8EFE5" stroke-width="1.4" stroke-linecap="round" stroke-linejoin="round"/>
<path d="M118.188 288.812C114.22 288.262 110.205 288.145 106.212 288.465L100.229 278.324C100.229 278.324 97.1275 280.226 93.1809 289.733" stroke="#F8EFE5" stroke-width="1.4" stroke-linecap="round" stroke-linejoin="round"/>
<path d="M114.604 288.417C117.315 285.238 120.846 282.864 124.813 281.555L124.348 294.882C124.283 296.837 124.491 298.791 124.965 300.688L126.064 305.032C126.413 306.529 126.34 308.094 125.853 309.553C125.214 311.442 124.272 313.214 123.064 314.801C122.669 315.307 122.163 315.715 121.586 315.997C121.009 316.278 120.376 316.424 119.734 316.424H117.123C116.536 316.424 115.972 316.19 115.557 315.775C115.142 315.36 114.909 314.797 114.909 314.209V312.012" stroke="#F8EFE5" stroke-width="1.4" stroke-linecap="round" stroke-linejoin="round"/>
<path d="M114.906 312.023V314.618C114.906 315.089 114.72 315.542 114.387 315.876C114.054 316.21 113.603 316.399 113.132 316.401H107.968C105.966 316.399 104.005 315.837 102.306 314.778C101.461 314.271 100.616 313.756 99.931 313.418" stroke="#F8EFE5" stroke-width="1.4" stroke-linecap="round" stroke-linejoin="round"/>
<path d="M119.07 316.434V319.442" stroke="#F8EFE5" stroke-width="1.4" stroke-linecap="round" stroke-linejoin="round"/>
<path d="M119.676 284.032C119.676 284.032 119.963 281.691 119.05 280.778C118.138 279.866 115.231 277.753 114.293 276.815C113.354 275.877 114.293 273.941 114.293 273.941" stroke="#F8EFE5" stroke-width="1.4" stroke-linecap="round" stroke-linejoin="round"/>
<path d="M124.422 292.643C124.422 292.643 132.417 284.876 140.758 288.417" stroke="#F8EFE5" stroke-width="1.4" stroke-linecap="round" stroke-linejoin="round"/>
<path d="M109.781 304.52C108.614 303.996 107.358 303.695 106.08 303.633" stroke="#F8EFE5" stroke-width="1.4" stroke-linecap="round" stroke-linejoin="round"/>
<path d="M118.336 304.779C119.508 304.247 120.769 303.94 122.055 303.875" stroke="#F8EFE5" stroke-width="1.4" stroke-linecap="round" stroke-linejoin="round"/>
<path d="M117.208 309.957C116.735 309.476 112.983 309.501 112.552 309.957C112.121 310.414 114.14 312.907 114.901 312.907C115.662 312.907 117.69 310.431 117.208 309.957Z" fill="#F8EFE5"/>
<path d="M145.309 278.168C145.309 278.168 156.075 288.419 158.323 296.025C159.118 298.712 158.712 301.941 157.85 305.051" stroke="#F8EFE5" stroke-width="1.4" stroke-linecap="round" stroke-linejoin="round"/>
<path d="M112.496 381.293H152.773V437.849H112.496V381.293Z" fill="#3C8AAC"/>
<path d="M112.522 437.84H152.664" stroke="#1B1B1B" stroke-width="1.4" stroke-linecap="round" stroke-linejoin="round"/>
<path d="M152.773 381.293H112.623" stroke="#1B1B1B" stroke-width="1.4" stroke-linecap="round" stroke-linejoin="round"/>
<path d="M146.89 392.707H160.023C160.976 392.706 161.92 392.893 162.8 393.258C163.68 393.622 164.48 394.157 165.153 394.832C165.826 395.506 166.359 396.307 166.721 397.188C167.084 398.07 167.269 399.014 167.266 399.966V422.083C167.263 424.002 166.499 425.842 165.141 427.199C163.783 428.555 161.942 429.317 160.023 429.317H146.89C145.939 429.318 144.998 429.132 144.119 428.769C143.241 428.406 142.442 427.873 141.769 427.201C141.097 426.529 140.563 425.731 140.199 424.853C139.835 423.975 139.648 423.034 139.648 422.083V399.966C139.643 399.013 139.827 398.069 140.189 397.187C140.552 396.305 141.085 395.504 141.758 394.829C142.431 394.155 143.231 393.62 144.112 393.255C144.993 392.891 145.937 392.705 146.89 392.707V392.707ZM146.425 419.218C146.424 419.473 146.474 419.727 146.571 419.963C146.668 420.199 146.811 420.414 146.992 420.595C147.173 420.776 147.388 420.919 147.624 421.016C147.86 421.113 148.113 421.163 148.369 421.162H158.51C159.026 421.162 159.52 420.957 159.885 420.592C160.249 420.228 160.454 419.733 160.454 419.218V402.781C160.454 402.264 160.25 401.769 159.885 401.403C159.521 401.037 159.027 400.831 158.51 400.828H148.369C148.113 400.828 147.86 400.879 147.623 400.977C147.387 401.075 147.172 401.219 146.992 401.401C146.811 401.582 146.668 401.797 146.571 402.034C146.474 402.271 146.424 402.525 146.425 402.781V419.218Z" fill="#3C8AAC"/>
<path d="M201.223 124.094H203.133" stroke="#1B1B1B" stroke-width="1.4" stroke-linecap="round" stroke-linejoin="round"/>
<path d="M184.781 123.34H179.905" stroke="#1B1B1B" stroke-width="1.4" stroke-linecap="round" stroke-linejoin="round"/>
<path d="M197.516 120.497V106.062" stroke="#1B1B1B" stroke-width="1.4" stroke-linecap="round" stroke-linejoin="round"/>
<path d="M181.634 96.3434C181.634 96.3434 183.392 99.6563 189.941 103.527C196.491 107.398 203.26 105.868 209.311 97.0449C215.362 88.2218 218.785 78.0549 221.143 68.3106C222.39 62.8429 222.76 57.2119 222.241 51.6279L221.971 48.6953" stroke="#1B1B1B" stroke-width="1.4" stroke-linecap="round" stroke-linejoin="round"/>
<path d="M196.79 43.6638C204.168 42.9539 219.904 44.4329 229.969 54.498" stroke="#1B1B1B" stroke-width="1.4" stroke-linecap="round" stroke-linejoin="round"/>
<path d="M193.477 43.3711C193.477 43.3711 188.448 56.5462 179.237 57.7885C179.237 57.7885 177.986 54.3574 175.991 52.8531C171.766 49.6502 169.4 53.6983 169.501 62.538C169.602 71.3778 173.828 72.4342 175.417 70.8116" stroke="#1B1B1B" stroke-width="1.4" stroke-linecap="round" stroke-linejoin="round"/>
<path d="M219.25 66.7511C219.25 66.7511 217.509 64.0552 212.278 64.8496" stroke="#1B1B1B" stroke-width="1.4" stroke-linecap="round" stroke-linejoin="round"/>
<path d="M210.422 66.7539C208.889 69.5516 208.108 72.6995 208.157 75.8895V83.901C208.16 84.1012 208.092 84.2959 207.966 84.4507C207.839 84.6054 207.661 84.7101 207.464 84.7461C205.665 85.0197 203.831 84.9768 202.047 84.6194" stroke="#1B1B1B" stroke-width="1.4" stroke-linecap="round" stroke-linejoin="round"/>
<path d="M206.242 62.5416C206.242 62.5416 198.095 57.6569 191.335 60.8513" stroke="#1B1B1B" stroke-width="1.4" stroke-linecap="round" stroke-linejoin="round"/>
<path d="M222.467 73.5942C222.467 73.5942 230.724 67.2726 236.226 55.0521C236.533 54.3689 236.68 53.624 236.653 52.8751C236.627 52.1263 236.429 51.3935 236.074 50.7336C226.456 32.7155 212.901 25.7263 202.008 22.7515C179.19 16.5145 160.893 33.3156 160.893 33.3156C152.823 43.812 152.239 58.2467 152.29 63.0639C152.297 64.1152 152.555 65.1497 153.042 66.081C154.733 69.284 161.586 79.603 167.739 85.7893" stroke="#1B1B1B" stroke-width="1.4" stroke-linecap="round" stroke-linejoin="round"/>
<path d="M170.5 69.0977L165.058 107.33" stroke="#1B1B1B" stroke-width="1.4" stroke-linecap="round" stroke-linejoin="round"/>
<path d="M180.72 20.2863L178.759 18.3172C178.236 17.7824 177.596 17.3759 176.889 17.1296C176.183 16.8833 175.429 16.8039 174.686 16.8975C168.861 17.732 163.467 20.4439 159.322 24.6217C158.512 25.4865 158.043 26.6159 158.003 27.8003C157.962 28.9846 158.353 30.1434 159.102 31.0614L160.945 33.3178C166.294 28.309 172.833 24.7486 179.943 22.9737C180.22 22.9084 180.474 22.7706 180.681 22.5744C180.887 22.3781 181.037 22.1306 181.116 21.8572C181.196 21.5837 181.201 21.2941 181.131 21.0181C181.061 20.7421 180.919 20.4895 180.72 20.2863V20.2863Z" fill="#1B1B1B" stroke="#1B1B1B" stroke-width="1.4" stroke-linecap="round" stroke-linejoin="round"/>
<path d="M174.912 16.2872C175.225 12.7462 175.166 4.45577 168.27 2.28386C159.422 -0.479631 146.373 1.24438 140.381 7.20235C134.39 13.1603 137.846 27.5947 145.604 30.7469C147.612 31.6099 149.78 32.0372 151.965 32.0008C154.15 31.9644 156.303 31.465 158.281 30.5356" stroke="#1B1B1B" stroke-width="1.4" stroke-linecap="round" stroke-linejoin="round"/>
<path d="M175.885 16.8966C175.885 16.8966 179.266 15.2824 179.266 10.3555" stroke="#1B1B1B" stroke-width="1.4" stroke-linecap="round" stroke-linejoin="round"/>
<path d="M157.938 26.0394C156.983 23.0309 154.219 16.887 147.213 14.8672" stroke="#1B1B1B" stroke-width="1.4" stroke-linecap="round" stroke-linejoin="round"/>
<path d="M197.615 70.4077C196.762 70.2035 196.316 69.0113 196.619 67.7448C196.922 66.4784 197.859 65.6173 198.713 65.8216C199.566 66.0258 200.012 67.2181 199.709 68.4845C199.406 69.7509 198.468 70.612 197.615 70.4077Z" fill="#1B1B1B"/>
<path d="M213.787 74.4624C212.934 74.2582 212.487 73.0659 212.791 71.7995C213.094 70.5331 214.031 69.672 214.885 69.8763C215.738 70.0805 216.184 71.2727 215.881 72.5392C215.578 73.8056 214.64 74.6667 213.787 74.4624Z" fill="#1B1B1B"/>
<path d="M535.812 273.406H360.031V277.074" stroke="#1B1B1B" stroke-width="1.4" stroke-linecap="round" stroke-linejoin="round"/>
<path d="M395.969 268.577L427.077 172.41H579.195L543.135 283.899" stroke="#1B1B1B" stroke-width="1.4" stroke-linecap="round" stroke-linejoin="round"/>
<path d="M433.125 177.988H570.031L541.416 266.456H404.585L433.125 177.988Z" fill="#F8EFE5" stroke="#1B1B1B" stroke-width="1.4" stroke-linecap="round" stroke-linejoin="round"/>
<path d="M513.383 236.539H540.578L533.665 257.844H506.554L513.383 236.539Z" fill="#3C8AAC"/>
</svg>
