<svg width="49" height="53" fill="none" xmlns="http://www.w3.org/2000/svg"><path fill-rule="evenodd" clip-rule="evenodd" d="M26.133 3.979c5.94-.332 9.982 5.23 13.724 9.754 3.787 4.578 7.919 9.502 7.018 15.323-.966 6.241-5.434 12.01-11.559 14.01-5.554 1.816-10.59-2.592-15.882-5.043-5.368-2.485-12.984-3.248-14.271-8.916-1.285-5.659 5.332-9.452 9.08-13.944 3.658-4.383 6.112-10.861 11.89-11.184Z" fill="#3C8AAC"/><path opacity=".7" fill-rule="evenodd" clip-rule="evenodd" d="M17.536 44.852c1.304 1.152 2.254 2.92 1.469 4.452-.785 1.534-2.771 1.75-4.49 1.45-1.616-.283-3.187-1.229-3.418-2.834-.22-1.535 1.117-2.696 2.526-3.367 1.3-.619 2.832-.655 3.913.3Z" fill="#3C8AAC"/><path d="M6 10.883c-2.761 0-5-2.212-5-4.94C1 3.212 3.239 1 6 1s5 2.212 5 4.941c0 2.729-2.239 4.941-5 4.941Z" stroke="#1B1B1B" stroke-linecap="round" stroke-linejoin="round"/><path d="M47 10.884c-1.105 0-2-.884-2-1.976 0-1.091.895-1.976 2-1.976s2 .885 2 1.976a1.988 1.988 0 0 1-2 1.976Z" fill="#1B1B1B"/></svg>