<svg width="602" height="439" fill="none" xmlns="http://www.w3.org/2000/svg"><path d="M125.131 133.172a7.615 7.615 0 0 1 4.445-5.468C141.171 122.727 160 114.326 160 114.326c19.234-7.31 65.005 10.649 65.005 10.649a5.59 5.59 0 0 1 2.941 2.197l38.207 56.285 14.206 3.583a12.207 12.207 0 0 0-1.935 5.747l-.042.11c-.507 1.344-1.209 2.629-1.69 3.981-.482 1.352-.905 3.262-1.251 3.98-1.031 2.13-2.366 3.998-3.127 6.288a19.321 19.321 0 0 0-.541 2.147 9.475 9.475 0 0 0-1.276 3.338c-8.451-1.319-15.617-2.536-18.905-3.381-3.287-.845-8.502-6.321-13.944-13.403-3.381 10.986-7.183 22.607-7.183 31.269a113.663 113.663 0 0 0 3.38 27.813s-10.801.186-15.119 4.505c-4.318 4.318-72.493 24.23-72.493 24.23s-2.594-6.761.431-27.56c1.927-13.201 4.378-12.525.085-27.289-13.745-1.647-31.497-3.009-31.497-24.314-.017-20.655 7.386-59.007 9.879-71.329Z" fill="#3C8AAC"/><path d="M203.624 323.292a13.391 13.391 0 0 0-4.225-2.535 84.913 84.913 0 0 0-26.452-4.615c-22.387-11.417-26.697-32.52-26.697-32.52 51.551-40 129.867-39.442 158.034-39.442 3.381 0 5.874.735 7.716 2.003-4.504-1.749-10.031-1.361-14.485.38-3.203 1.251-7.099 2.755-9.524 5.24-.365.379-.709.776-1.031 1.192l-.178.143a11.965 11.965 0 0 0-2.535 2.612 12.12 12.12 0 0 0-3.82 2.324c-1.842 1.69-3.626 3.178-4.859 5.434-.533.98-.998 2.011-1.505 3.017a11.743 11.743 0 0 0-4.682 7.877c-.118.143-.245.287-.354.439a15.559 15.559 0 0 0-1.479 2.536c-.051.093-.195.304-.347.54a8.554 8.554 0 0 0-3.11 5.021 9.547 9.547 0 0 0-1.132 2.662c-.059.194-.102.38-.144.574-.042.195-.177.271-.254.406-3.16 5.916-6.946 11.35-9.338 17.655a69.233 69.233 0 0 0-2.949 11.443s-24.466 8.223-46.65 7.614Z" fill="#1B1B1B"/><path d="m209.469 162.778-25.92-29.393-21.769-20.816V107h3.287l14.172 1.411 22.818.558h5.054l-1.056 11.198 3.414 42.611Z" fill="#F8EFE5"/><path d="M161.782 112.569V107l17.46 1.411v19.81" stroke="#1B1B1B" stroke-width="1.4" stroke-linecap="round" stroke-linejoin="round"/><path d="m217.008 188.168-17.564-10.709-39.939-30.382-8.451-29.867 10.699-4.64s17.832 15.213 48.534 51.333l6.721 24.265Zm0 0 8-42M209.652 163.124c0-15.009-3.38-44.436-3.38-44.436l10.75 3.38 7.986 23.841M239.445 158.91s2.485 4.25 3.051 9.254c.566 5.004.01 8.504.01 8.504M242.5 176.648s-1.766 8.705-5.409 20.917M217.273 253.91c-5.155-30.045 0-59.43 0-59.43v-8.093M257.837 189.275l8.324-5.857 7.901 1.994M266.164 183.418l-4.876-7.184M199.19 108.967h7.927l-1.056 11.197M310.678 202.832c-5.214 0-10.344 4.226-11.468 9.44-1.124 5.214 2.189 9.431 7.395 9.431a12.17 12.17 0 0 0 9.364-4.935" stroke="#1B1B1B" stroke-width="1.4" stroke-linecap="round" stroke-linejoin="round"/><path d="m257.828 246.239 29.951-79.593a11.395 11.395 0 0 1 12.676-7.201l48.23 8.713a7.157 7.157 0 0 1 5.045 3.687 7.158 7.158 0 0 1 .22 6.244l-8.704 19.632M321.58 251.221 335 221.566" stroke="#1B1B1B" stroke-width="1.4" stroke-linecap="round" stroke-linejoin="round"/><path d="M332.164 221.592s-9.414-6.887-10.589-7.884c-1.174-.998-3.676-3.33-3.676-3.33l1.403-2.037-2.916-3.439s-1.284-.414-.481-2.891c.802-2.476 2.002-1.039 2.002-1.039l-2.391-3.254 2.924-1.952 11.899 5.206 10.369 3.777.845-1.293-8.806-8.358s-7.234-5.172-7.656-5.594c-.423-.423-.195-3.533-.195-3.533l1.691-.912 6.837 4.31 11.831 8.375a5.543 5.543 0 0 1 2.933 4.808c-.001 3.381-2.925 9.406-2.925 9.406l-5.341 8.274a7.432 7.432 0 0 1-2.493 1.149c-1.157.178-5.265.211-5.265.211ZM346.085 195.764l9.584-6.55a3.055 3.055 0 0 0 1.166-3.515 2.037 2.037 0 0 0-1.186-1.24 2.036 2.036 0 0 0-1.713.099l-4.048 2.603" fill="#F8EFE5"/><path d="m346.085 195.764 9.584-6.55a3.055 3.055 0 0 0 1.166-3.515v0a2.037 2.037 0 0 0-1.186-1.24 2.036 2.036 0 0 0-1.713.099l-4.048 2.603M338.204 210.783l-6.896-3.212c-1.893-.845-3.753-1.842-5.561-2.873l-9.026-5.155a1.52 1.52 0 0 1-.709-.952 1.504 1.504 0 0 1 .202-1.169l.372-.567a2.24 2.24 0 0 1 1.246-.917 2.237 2.237 0 0 1 1.543.114l7.471 3.44a64.23 64.23 0 0 0 5.197 2.121l8.848 2.84c.786.279.533-.093 0-.71l-3.98-4.843a36.01 36.01 0 0 0-4.107-3.828l-7.657-5.594a2.154 2.154 0 0 1-.533-2.933l.339-.6a1.554 1.554 0 0 1 2.095-.473l6.989 4.225a77.613 77.613 0 0 1 8.654 6.077l2.552 1.943a8.387 8.387 0 0 1 2.933 4.809v0a8.453 8.453 0 0 1-1.344 6.499l-5.07 9.347a7.603 7.603 0 0 1-6.761 3.194 9.344 9.344 0 0 1-4.378-1.42 74.508 74.508 0 0 1-11.781-8.831v0a1.795 1.795 0 0 1-.287-2.299v0a2.11 2.11 0 0 1 1.352-.901 2.098 2.098 0 0 1 1.589.335l5.561 3.904" stroke="#1B1B1B" stroke-width="1.4" stroke-linecap="round" stroke-linejoin="round"/><path d="M319.278 201.368a2.537 2.537 0 0 0-3.38.676v0a2.046 2.046 0 0 0-.077 2.304c.145.231.335.43.559.587l4.817 3.38a156.665 156.665 0 0 0 12.051 7.606l.752.423M143.124 196.351l7.251-37.109" stroke="#1B1B1B" stroke-width="1.4" stroke-linecap="round" stroke-linejoin="round"/><path d="m202.187 132.672 6.456 10.944.998 19.843-13.742-15.727-.473-14.029" fill="#1B1B1B"/><path d="m195.424 133.701 5.299-.389a2.412 2.412 0 0 0 1.91-1.2 2.41 2.41 0 0 0 .245-1.843l-1.893-7.098a3.604 3.604 0 0 0-3.473-2.671h-9.905a2.846 2.846 0 0 0-2.005.832 2.834 2.834 0 0 0-.826 2.008c.002.711.27 1.395.752 1.918l6.617 7.149a4.03 4.03 0 0 0 3.279 1.294Z" fill="#1B1B1B"/><path d="M193.123 134.485c4.284-1.327 8.045-1.885 10.783-1.031" stroke="#F8EFE5" stroke-width="1.4" stroke-miterlimit="10"/><path d="m195.577 138.29 4.495-.634a.933.933 0 0 1 1.023.609.944.944 0 0 1-.372 1.104.94.94 0 0 1-.389.146l-4.69.651-.067-1.876Z" fill="#3C8AAC"/><path d="M384.575 296.388h197.433v-12.634H364.09" fill="#F8EFE5"/><path d="M575.25 282.698v-9.44h-29.317l-2.797 10.496 32.114-1.056Z" fill="#3C8AAC"/><path d="M570.047 296.379v132.093a8.452 8.452 0 0 1-8.451 8.451h-56.107a8.45 8.45 0 0 1-8.451-8.451V296.379M439.469 296.379v132.093a8.452 8.452 0 0 1-8.451 8.451H374.92" stroke="#1B1B1B" stroke-width="1.4" stroke-linecap="round" stroke-linejoin="round"/><path d="M384.575 287.343h197.433v-4.648H364.09" fill="#1B1B1B"/><path d="M570.031 389.037h-72.957M570.031 340.965h-72.957M439.469 389.037h-21.195M439.469 340.965h-12.956M4 437.852h597M246.229 211.938a207.866 207.866 0 0 0 18.373 15.516M341.867 437.848H107.909c-65.918 0-106.906-29.081-106.906-84.437 0-55.355 13.945-93.876 27.466-137.155 15.39-49.254 40.337-84.462 94.424-86.6M341.023 271.691c33.872 16.903 43.548 24.687 43.548 24.687a76.349 76.349 0 0 1 33.695 63.384 79.053 79.053 0 0 1-28.616 60.637" stroke="#1B1B1B" stroke-width="1.4" stroke-linecap="round" stroke-linejoin="round"/><path d="M219.258 331.757s-22.75-20.747-76.059-15.11c-22.058 2.324-37.684 4.952-55.777 5.425" stroke="#1B1B1B" stroke-width="1.4" stroke-linecap="round" stroke-linejoin="round"/><path d="M130.867 338.626a52.785 52.785 0 0 1-21.351-2.556 52.796 52.796 0 0 1-18.563-10.856 178.889 178.889 0 0 0-43.726-29.191" stroke="#1B1B1B" stroke-width="1.4" stroke-linecap="round" stroke-linejoin="round"/><path d="M309.318 437.639h-94.795s-2.265-8.747-.229-20.714l2.291-8.358 2.281-1.149 2.603 1.487s4.691 7.251 15.728 8.308c11.037 1.056 15.905 4.175 20.553 4.107 4.648-.068 4.386-1.082 5.417-2.113a2.916 2.916 0 0 1 1.817-1.031l13.699 3.879 7.107-3.879 17.325 4.352 4.225 4.04 2.012 4.099-.034 6.972Z" fill="#F8EFE5"/><path d="M285.806 418.179s-12.009-4.462-15.424-7.868c-5.256-5.265-3.912-11.409 6.415-32.394 15.71-31.911 48.559-74.776 56.377-93.69 7.817-18.914 1.453-30.974-10.615-32.858a112.515 112.515 0 0 0-6.617-.846" stroke="#1B1B1B" stroke-width="1.4" stroke-linecap="round" stroke-linejoin="round"/><path d="M287.498 437.638h21.838v-6.972a12.213 12.213 0 0 0-8.798-8.611 584.272 584.272 0 0 1-14.73-3.879c-1.859.845-2.805 3.634-8.265 3.583M309.328 432.359h-15.896M263.97 418.178l-11.29-3.887a11.357 11.357 0 0 1-3.558-1.961c-2.798-2.35-5.916-7.691 5.839-34.414 14.367-32.537 50.842-85.188 58.659-104.094 7.817-18.905 2.856-28.506-9.364-28.506-18.237 0-37.463 27.154-48.238 53.564-10.775 26.411-18.939 78.081-34.328 105.97a50.131 50.131 0 0 0-1.454 2.806" stroke="#1B1B1B" stroke-width="1.4" stroke-linecap="round" stroke-linejoin="round"/><path d="M214.534 437.64h72.958v-6.972a12.212 12.212 0 0 0-8.797-8.612 577.82 577.82 0 0 1-14.73-3.879 6.876 6.876 0 0 1-6.989 3.077c-36.746-5.274-36.746-13.598-36.746-13.598s-3.236-1.361-4.428 2.535c-3.896 12.601-1.268 27.449-1.268 27.449ZM287.219 432.359h-65.268" stroke="#1B1B1B" stroke-width="1.4" stroke-linecap="round" stroke-linejoin="round"/><path d="M153.14 315.865s5.798-10.319 5.798-16.902c0-6.584-12.745-23.342-29.511-32.96-16.767-9.617-31.362-8.029-40.38-2.958-9.017 5.071-25.674 27.289-21.972 43.947l19.75 14.561c5.737.177 11.48.014 17.198-.49 8.214-.837 49.117-5.198 49.117-5.198Z" fill="#1B1B1B"/><path d="M97.883 321.553v-4.226a3.143 3.143 0 0 0-2.105-2.958c-2.002-.726-5.611-1.377-11.535-.464" stroke="#F8EFE5" stroke-width="1.4" stroke-linecap="round" stroke-linejoin="round"/><path d="M91.063 313.49a9.69 9.69 0 0 1-6.11-6.482M135.875 317.446v-3.211a3.84 3.84 0 0 0-2.375-3.549c-1.589-.66-4.09-1.116-7.842-.448M118.188 288.812a55.139 55.139 0 0 0-11.976-.347l-5.983-10.141s-3.102 1.902-7.048 11.409" stroke="#F8EFE5" stroke-width="1.4" stroke-linecap="round" stroke-linejoin="round"/><path d="M114.604 288.417a22.812 22.812 0 0 1 10.209-6.862l-.465 13.327a21.063 21.063 0 0 0 .617 5.806l1.099 4.344a8.316 8.316 0 0 1-.211 4.521 18.397 18.397 0 0 1-2.789 5.248 4.23 4.23 0 0 1-3.33 1.623h-2.611a2.216 2.216 0 0 1-2.214-2.215v-2.197" stroke="#F8EFE5" stroke-width="1.4" stroke-linecap="round" stroke-linejoin="round"/><path d="M114.906 312.023v2.595a1.782 1.782 0 0 1-1.774 1.783h-5.164a10.723 10.723 0 0 1-5.662-1.623c-.845-.507-1.69-1.022-2.375-1.36M119.07 316.434v3.008M119.676 284.032s.287-2.341-.626-3.254c-.912-.912-3.819-3.025-4.757-3.963-.939-.938 0-2.874 0-2.874M124.422 292.643s7.995-7.767 16.336-4.226M109.781 304.52a10.25 10.25 0 0 0-3.701-.887M118.336 304.779a10.247 10.247 0 0 1 3.719-.904" stroke="#F8EFE5" stroke-width="1.4" stroke-linecap="round" stroke-linejoin="round"/><path d="M117.208 309.957c-.473-.481-4.225-.456-4.656 0-.431.457 1.588 2.95 2.349 2.95.761 0 2.789-2.476 2.307-2.95Z" fill="#F8EFE5"/><path d="M145.309 278.168s10.766 10.251 13.014 17.857c.795 2.687.389 5.916-.473 9.026" stroke="#F8EFE5" stroke-width="1.4" stroke-linecap="round" stroke-linejoin="round"/><path d="M112.496 381.293h40.277v56.556h-40.277v-56.556Z" fill="#3C8AAC"/><path d="M112.522 437.84h40.142M152.773 381.293h-40.15" stroke="#1B1B1B" stroke-width="1.4" stroke-linecap="round" stroke-linejoin="round"/><path d="M146.89 392.707h13.133a7.229 7.229 0 0 1 5.13 2.125 7.239 7.239 0 0 1 2.113 5.134v22.117a7.244 7.244 0 0 1-7.243 7.234H146.89a7.237 7.237 0 0 1-6.691-4.464 7.231 7.231 0 0 1-.551-2.77v-22.117a7.218 7.218 0 0 1 4.464-6.711 7.235 7.235 0 0 1 2.778-.548Zm-.465 26.511a1.943 1.943 0 0 0 .567 1.377 1.933 1.933 0 0 0 1.377.567h10.141a1.944 1.944 0 0 0 1.944-1.944v-16.437a1.95 1.95 0 0 0-1.944-1.953h-10.141a1.951 1.951 0 0 0-1.377.573 1.953 1.953 0 0 0-.567 1.38v16.437Z" fill="#3C8AAC"/><path d="M201.223 124.094h1.91M184.781 123.34h-4.876M197.516 120.497v-14.435M181.634 96.343s1.758 3.313 8.307 7.184c6.55 3.871 13.319 2.341 19.37-6.482s9.474-18.99 11.832-28.734a52.977 52.977 0 0 0 1.098-16.683l-.27-2.933" stroke="#1B1B1B" stroke-width="1.4" stroke-linecap="round" stroke-linejoin="round"/><path d="M196.79 43.664c7.378-.71 23.114.769 33.179 10.834M193.477 43.371s-5.029 13.175-14.24 14.417c0 0-1.251-3.43-3.246-4.935-4.225-3.203-6.591.845-6.49 9.685.101 8.84 4.327 9.896 5.916 8.274M219.25 66.751s-1.741-2.696-6.972-1.901M210.422 66.754a18.423 18.423 0 0 0-2.265 9.135v8.012a.846.846 0 0 1-.693.845c-1.799.274-3.633.23-5.417-.127M206.242 62.542s-8.147-4.885-14.907-1.69" stroke="#1B1B1B" stroke-width="1.4" stroke-linecap="round" stroke-linejoin="round"/><path d="M222.467 73.594s8.257-6.321 13.759-18.542a4.883 4.883 0 0 0-.152-4.318c-9.618-18.019-23.173-25.008-34.066-27.983-22.818-6.236-41.115 10.565-41.115 10.565-8.07 10.496-8.654 24.93-8.603 29.748a6.606 6.606 0 0 0 .752 3.017c1.691 3.203 8.544 13.522 14.697 19.708M170.5 69.098l-5.442 38.232" stroke="#1B1B1B" stroke-width="1.4" stroke-linecap="round" stroke-linejoin="round"/><path d="m180.72 20.286-1.961-1.969a4.845 4.845 0 0 0-4.073-1.42 27.046 27.046 0 0 0-15.364 7.725 4.892 4.892 0 0 0-.22 6.44l1.843 2.256a43.049 43.049 0 0 1 18.998-10.344 1.609 1.609 0 0 0 1.173-1.117c.08-.273.085-.563.015-.839a1.613 1.613 0 0 0-.411-.732v0Z" fill="#1B1B1B" stroke="#1B1B1B" stroke-width="1.4" stroke-linecap="round" stroke-linejoin="round"/><path d="M174.912 16.287c.313-3.54.254-11.831-6.642-14.003-8.848-2.764-21.897-1.04-27.889 4.918-5.991 5.958-2.535 20.393 5.223 23.545a15.457 15.457 0 0 0 12.677-.211M175.885 16.897s3.381-1.615 3.381-6.541" stroke="#1B1B1B" stroke-width="1.4" stroke-linecap="round" stroke-linejoin="round"/><path d="M157.938 26.04c-.955-3.01-3.719-9.153-10.725-11.173" stroke="#1B1B1B" stroke-width="1.4" stroke-linecap="round" stroke-linejoin="round"/><path d="M197.615 70.408c-.853-.204-1.299-1.397-.996-2.663.303-1.267 1.24-2.128 2.094-1.923.853.204 1.299 1.396.996 2.662-.303 1.267-1.241 2.128-2.094 1.924ZM213.787 74.462c-.853-.204-1.3-1.396-.996-2.663.303-1.266 1.24-2.127 2.094-1.923.853.204 1.299 1.397.996 2.663-.303 1.267-1.241 2.128-2.094 1.923Z" fill="#1B1B1B"/><path d="M535.812 273.406H360.031v3.668" stroke="#1B1B1B" stroke-width="1.4" stroke-linecap="round" stroke-linejoin="round"/><path d="m395.969 268.577 31.108-96.167h152.118l-36.06 111.489" stroke="#1B1B1B" stroke-width="1.4" stroke-linecap="round" stroke-linejoin="round"/><path d="M433.125 177.988h136.906l-28.615 88.468H404.585l28.54-88.468Z" fill="#F8EFE5" stroke="#1B1B1B" stroke-width="1.4" stroke-linecap="round" stroke-linejoin="round"/><path d="M513.383 236.539h27.195l-6.913 21.305h-27.111l6.829-21.305Z" fill="#3C8AAC"/></svg>