<svg width="197" height="33" fill="none" xmlns="http://www.w3.org/2000/svg"><path fill-rule="evenodd" clip-rule="evenodd" d="M4.446 2.175a201.04 201.04 0 0 1 2.159 3.647l.84 1.473-3.723 3.55L0 14.395l6.52.01 6.521.01.429-1.055.552-1.367c.096-.24-.691-.311-3.452-.311H6.995l2.21-2.213 2.21-2.212-1.262-2.075-1.262-2.075 5.756-.067c3.166-.037 5.811-.011 5.88.056.067.068-2.15 5.467-4.93 11.997-2.778 6.531-5.109 12.02-5.18 12.197-.099.25.278.305 1.682.248l1.81-.073 5.655-13.298C22.674 6.854 25.294.674 25.385.435 25.542.025 24.915 0 14.34 0H3.129l1.317 2.175Zm99.308 9.477c-1.766.8-2.853 2.584-2.857 4.69-.001.777-.04.808-.999.808H98.9V19.635h1.996V32.81H103.889v-13.15l1.527-.074 1.527-.074.464-1.18.465-1.181h-3.983v-.73c0-2.279 1.446-3.149 4.394-2.644 1.024.175 1.027.173 1.445-.866.23-.573.385-1.067.345-1.098-.943-.73-4.842-.828-6.319-.16Zm-78.187 1.397v1.367H32.302v18.416l1.559-.074 1.559-.074.065-9.134.066-9.134h6.728v-2.734H25.567v1.367Zm110.852-.684c.079.376.876 4.543 1.772 9.259.895 4.716 1.745 9.162 1.889 9.88l.262 1.305h2.899l2.3-5.655c1.264-3.11 2.385-5.746 2.491-5.858.179-.191.655 1.043 3.3 8.558l1.04 2.955h1.446c1.368 0 1.454-.037 1.62-.684.096-.376 1.258-5.13 2.581-10.563l2.406-9.88h-3.065l-1.816 8.016c-.999 4.408-1.861 8.062-1.917 8.119-.166.17-.194.097-2.115-5.448l-1.852-5.343h-2.723l-2.13 5.405c-1.172 2.973-2.197 5.406-2.277 5.406-.119 0-1.306-6.292-2.754-14.602l-.271-1.553h-3.229l.143.683Zm25.838.808v1.491h3.242v-2.982h-3.242v1.491ZM55.125 16.98l-1.247.31.078.987c.044.542.163 1.072.265 1.175.102.104.783.076 1.514-.062 2.731-.516 4.64-.166 5.887 1.08.663.661 1.36 2.48 1.064 2.775-.044.044-.696-.087-1.45-.29-3.185-.859-7.066.163-8.431 2.218-.584.88-.673 1.266-.673 2.915 0 1.701.074 1.998.7 2.817 1.389 1.814 4.145 2.555 6.725 1.808.768-.223 1.729-.683 2.135-1.024.406-.34.806-.62.89-.62.082 0 .15.392.15.87v.87H65.477v-5.625c0-3.497-.107-5.984-.284-6.573-.399-1.324-1.507-2.572-2.87-3.229-1.405-.678-5.225-.891-7.197-.402Zm19.487.039c-.532.189-1.346.709-1.808 1.156l-.842.813v-2.086h-2.744V32.81h2.693l.1-5.158c.077-3.97.19-5.36.49-6.039 1.438-3.245 6.262-3.224 7.2.032.133.466.243 3.168.243 6.005v5.16H82.936V27.26c0-6.447-.195-7.483-1.677-8.924-1.617-1.573-4.386-2.122-6.648-1.32Zm14.5-.028c-3.111 1.162-4.414 3.78-3.22 6.47.438.987.718 1.256 1.836 1.76.726.329 2.25.77 3.388.983 2.436.454 2.99.71 3.3 1.525.93 2.438-3.044 3.63-6.467 1.94l-1.524-.753-.622 1.108c-.341.61-.621 1.156-.621 1.215 0 .322 2.903 1.353 4.502 1.599 3.102.477 5.96-.55 7.255-2.605.731-1.16.567-3.848-.29-4.777-.782-.847-2.261-1.506-3.86-1.72-3.025-.407-4.365-1.111-4.365-2.295 0-2.136 2.767-2.945 5.807-1.699l1.442.59.616-.902c.339-.497.616-.995.616-1.108 0-.112-.628-.49-1.395-.841-1.727-.787-4.94-1.034-6.398-.49Zm23.749.045c-1.325.407-3.023 1.779-3.885 3.14-.336.529-.789 1.657-1.007 2.507-1.015 3.946.827 8.167 4.207 9.638 2.629 1.144 6.783.574 8.929-1.227l.868-.728-.858-.89c-.802-.83-.892-.864-1.372-.51-2.037 1.503-4.693 1.805-6.516.74-2.667-1.557-3.235-6.498-1.034-8.995 2.398-2.722 6.369-1.715 7.169 1.817l.189.837h-2.687c-2.904 0-2.848-.025-3.564 1.553l-.423.932h9.792l-.146-1.802c-.208-2.588-.8-4.063-2.182-5.44-1.825-1.819-4.707-2.424-7.48-1.572Zm59.05.018c-2.515.771-3.993 3.177-3.419 5.565.492 2.042 1.787 2.89 5.482 3.588 3.067.58 3.896 1.316 3.245 2.882-.682 1.642-3.933 1.89-6.579.503l-1.322-.692-.6 1.103-.6 1.104.591.48c1.601 1.3 6.401 1.757 8.514.809 2.006-.9 3.237-2.624 3.241-4.541.001-.333-.231-1.084-.515-1.668-.642-1.321-2.239-2.151-4.971-2.585-3.098-.492-4.155-1.378-3.504-2.943.663-1.595 3.62-1.983 5.978-.784.586.298 1.094.506 1.128.462.034-.043.359-.522.72-1.063l.658-.984-.687-.434c-1.751-1.104-5.159-1.476-7.36-.802Zm15.254-.01c-1.672.512-3.471 2.226-4.342 4.133-.888 1.946-1.003 4.765-.28 6.84.606 1.741 2.3 3.58 3.964 4.304 2.629 1.144 6.783.574 8.93-1.227l.867-.728-.858-.89c-.802-.83-.892-.864-1.372-.51-2.037 1.503-4.693 1.805-6.516.74-2.667-1.557-3.234-6.498-1.034-8.995 2.398-2.722 6.369-1.715 7.169 1.817l.189.837h-2.687c-2.904 0-2.848-.025-3.564 1.553l-.423.932H197l-.145-1.802c-.209-2.588-.8-4.063-2.183-5.44-1.832-1.825-4.705-2.424-7.507-1.564ZM42.279 24.855v7.954H45.272v-5.141c0-4.752.04-5.225.536-6.244.724-1.49 2.172-2.164 4.198-1.953l1.403.146.307-1.143c.169-.628.245-1.204.169-1.28-.231-.23-3.048-.361-3.99-.185-.488.09-1.265.495-1.726.899-.46.403-.907.733-.992.733-.085 0-.154-.391-.154-.87v-.87h-2.744v7.954Zm83.311 0v7.954h2.693l.088-5.158c.078-4.615.141-5.262.601-6.151.763-1.478 2.265-2.19 4.259-2.02l1.53.131.313-1.113c.172-.613.231-1.195.132-1.293-.099-.099-1.172-.18-2.384-.18-2.081 0-2.267.045-3.346.803l-1.142.803v-1.73h-2.744v7.954Zm36.916 0v7.954H165.499V16.9H162.506v7.954Zm-100.298.732c.512.273.562.431.421 1.342-.28 1.804-1.722 3.184-3.648 3.491-2.373.378-3.98-.607-3.98-2.437 0-2.241 1.73-3.208 5.12-2.86.828.084 1.767.293 2.087.464Z" fill="#EEE3D7"/></svg>