<svg width="509" height="301" fill="none" xmlns="http://www.w3.org/2000/svg"><g clip-path="url('#clip0_2708_4986')"><path d="M305.033 81.078c17.166-47.987 66.985-88.523 132.74-69.101 65.756 19.421 4.778 310.427-109.651 347.593-114.429 37.165-174.549-25.022-228.627-36.158C.26 302.978-25.002 197.456 46.245 161.185c71.249-36.27 138.532-.546 183.38-.436 44.848.109 58.241-31.685 75.408-79.671Z" stroke="#1B1B1B" stroke-width="1.16"/><path d="M305.048 81.152c17.166-47.986 66.986-88.523 132.741-69.101 65.755 19.422 4.777 310.428-109.651 347.593-114.429 37.165-174.55-25.022-228.627-36.158C.276 303.052-24.986 197.53 46.26 161.259c71.248-36.27 138.532-.546 183.38-.436 44.847.11 58.241-31.684 75.407-79.67Z" fill="#F6C7B2"/><path d="M437.773 11.975c11.392 3.365 18.981 14.883 23.146 31.821M46.245 161.184c-16.909 8.608-28.382 21.116-34.72 35.461" stroke="#F6C7B2" stroke-width="1.657"/></g><defs><clipPath id="clip0_2708_4986"><path fill="#fff" d="M0 0h509v301H0z"/></clipPath></defs></svg>