<svg width="569" height="430" fill="none" xmlns="http://www.w3.org/2000/svg"><g clip-path="url('#clip0_2708_4636')"><g clip-path="url('#clip1_2708_4636')"><rect x="138.055" y="-.001" width="265.196" height="547.795" rx="32.791" fill="#3C8AAC"/><mask id="mask0_2708_4636" style="mask-type:alpha" maskUnits="userSpaceOnUse" x="138" y="-34" width="266" height="635"><rect x="138.055" y="-33.599" width="265.196" height="634.009" rx="32.791" fill="#3C8AAC"/></mask><g mask="url('#mask0_2708_4636')"><path d="M363.497 426.193c14.104-29.481 45.893-50.59 81.096-30.846 35.203 19.743-26.064 203.155-93.897 215.121-67.833 11.967-95.904-35.088-125.303-48.167-53.948-24.002-58.39-95.599-14.939-111.621 43.452-16.021 78.005 14.528 103.231 19.418 25.226 4.891 35.708-14.425 49.812-43.905Z" fill="#F8EFE5"/><path d="M153.656 397.085c.634 9.925-5.272 25.037-26.685 26.684-21.412 1.647-39.203-33.603-16.849-45.617 26.072-14.013 42.492 2.642 43.534 18.933Z" fill="#1B1B1B"/><path d="M433.146 302.685c.634 9.926-9.651 18.127-18.929 22.648-29.491 9.01-52.865-33.482-26.048-46.012 26.816-12.529 44.343 13.438 44.977 23.364Z" fill="#F8EFE5"/></g><path d="m366.242 224.145-9.534-53.567" stroke="#1B1B1B" stroke-width=".721" stroke-linecap="round" stroke-linejoin="round"/><path d="M362.1 193.059a1.19 1.19 0 0 1-2.341.435l-3.673-19.713a1.19 1.19 0 0 1 2.342-.435l3.672 19.713Z" fill="#EBC7B5"/><path d="M359.72 238.155a6.432 6.432 0 0 0-.535-.718c7.67-49.408 19.799-64.481 19.799-64.481-7.916 20.867-15.593 50.867-19.129 65.408l-.135-.209Z" fill="#F8EFE5"/><path d="M364.462 244.208c-.375-40.237.284-75.264.284-75.264 4.393 22.318 2.037 59.211.626 75.847a22.978 22.978 0 0 1-.91-.583Z" fill="#1B1B1B"/><path d="M368.906 244.609s-.352-55.283-9.493-83.911c0 .008 3.872 40.342 9.493 83.911Z" fill="#F8EFE5"/><path d="m365.176 223.127 6.543-61.776" stroke="#1B1B1B" stroke-width=".721" stroke-linecap="round" stroke-linejoin="round"/><path d="M350.914 108.114c-3.348-3.366-13.538-5.902-13.538-5.902l-5.954-1.302s.561 11.438.876 11.438c.315 0 8.205.811 8.205.811l4.213-.778" fill="#3C8AAC"/><path d="M252.872 96.798c0 2.244 1.464 3.706 4.119 6.358 2.367 2.364 11.452 9.912 13.25 11.4l.232.195.24-.187c2.913-2.297 17.563-13.839 19.608-15.896a11.788 11.788 0 0 1 7.085-3.419l2.693-.422-.374-4.575h2.966v16.644l10.485-12.716 1.435-4.115h7.916l-.749 3.74.566.221 6.048 2.368c.15.041.3.09.446.146l.191.067c3.04 1.148 5.183 4.249 7.729 11.037 3.337 8.883 8.947 27.154 10.486 32.914.625 2.345.412 4.226-.637 5.61-1.344 1.751-4.029 2.637-7.976 2.637-2.274 0-5.685-.64-9.295-1.32-3.079-.58-6.565-1.235-9.685-1.534l.525.157-1.603 4.78s-9.655.692-13.224 3.318a44.793 44.793 0 0 0-6.415 5.879l-16.852-.089-1.209-1.747a8.599 8.599 0 0 1-1.311-6.803l6.703-32.028-.722.419c-3.491 2.009-8.03 4.638-9.831 5.76-1.048.655-3.498 2.184-6.209 2.184a6.957 6.957 0 0 1-5.041-2.203c-1.194-1.35-11.755-13.273-14.459-15.974-2.805-2.805-5.198-2.618-5.22-2.618 5.819-.453 7.905-4.425 8.089-10.188Zm79.205 40.326-4.992-11.359-3.936 11.434 8.928-.075Z" fill="#EBC7B5"/><path d="M312.136 147.473c.749-.374 1.55-1.496 1.55-1.496s.655-2.779-.775-4.664c-1.431-1.885-4.711-3.034-4.711-3.034l-8.351 3.161-4.891 2.15-4.007 3.883-3.161 4.798.341 1.122.625.157s1.052-.108 1.052-.374c0-.265 4.071-3.74 4.071-3.74l3.326-2.898-.835 3.317a1.633 1.633 0 0 0 .397 1.496c.625.625 3.089 1.683 3.089 1.683l3.577 1.163h1.932s1.075-1.731 1.075-2.386c0-.654-.671-1.956-.671-1.956a30.575 30.575 0 0 0 6.367-2.382ZM301.147 171.751c4.981-11.011 9.1-14.366 17.635-14.366h11.235c13.13 0 21.597-3.292 26.327-10.473-5.176 13.465-14.347 28.8-20.253 38.696l-.187.314a16.718 16.718 0 0 1-14.294 8.101l-37.075-.187c7.314-2.805 11.92-11.688 16.612-22.085ZM310.969 96.842l-8.288 10.05V96.408l8.288.434ZM252.114 101.539s-1.551 5.51-6.693 5.472c-5.141-.037-6.314-1.088-6.314-1.088l-3.849-3.09-1.307-.707-1.775-.587-.349-1.578-2.621-.935-1.124-.823-7.68-7.69s-1.431-.875.198-.875 1.805.093 1.805.093l4.209 3.367-.831-3.479 2.247.442 1.955 3.818-.139-1.38 1.48-.422 1.123 1.223.715 2.15h1.375l.591-.901 1.094.56.296.42s6.666.617 8.28-.034c1.614-.65 1.824-1.907 1.614-2.57-.21-.661-2.015-4.196-2.247-4.91-.232-.715-.446-1.9.093-2.39a1.34 1.34 0 0 1 1.124-.348l4.063 5.674s2.779 3.98 2.977 4.656c.199.677.723 4.294-.31 5.932ZM194.224 149.116c0 4.556 4.587 8.251 10.25 8.251 5.662 0 10.268-3.695 10.268-8.251h-20.518ZM204.47 157.374h2.951a3.515 3.515 0 0 1 2.482 1.025 3.507 3.507 0 0 1 1.027 2.48h-12.92a3.504 3.504 0 0 1 3.509-3.505h2.951Z" fill="#F8EFE5"/><path d="M204.465 157.371s.69.209 1.577.46c1.764.493 4.318 1.122 3.857.576l-.045-.049a2.009 2.009 0 0 1-.393-.527 1.04 1.04 0 0 1 .068-.995 4.13 4.13 0 0 1 1.209-1.19c.191-.142.405-.288.644-.437l.03-.023.195-.146c.313-.346.66-.662 1.034-.942l-4.869-.853-2.872 3.591-.435.535Z" fill="#F8EFE5"/><path d="M196.298 154.102c.364.267.7.571 1 .908l.251.195h.026c.217.135.416.269.592.4.491.314.911.725 1.236 1.208a1.038 1.038 0 0 1 .067.995 1.977 1.977 0 0 1-.375.527l-.045.049c-.46.561 2.094-.082 3.858-.576.887-.25 1.576-.46 1.576-.46l-.427-.535-2.872-3.59-4.887.879Z" fill="#F8EFE5"/><path d="M194.223 148.124h20.504v.995h-20.504v-.995ZM199.472 157.839h9.992a1.04 1.04 0 0 1 .067-.995H199.42a1.041 1.041 0 0 1 .052.995Z" fill="#1B1B1B"/><path d="M208.214 249.359h9.77l-1.531-.599-5.524.071-2.577-.071.004-3.347 2.573-3.063v-78.499h-2.715v84.045h-5.928l-1.187 1.463h7.115Z" fill="#1B1B1B" stroke="#1B1B1B" stroke-width=".801" stroke-linecap="round" stroke-linejoin="round"/><path d="M239.903 245.48a5.62 5.62 0 0 0-3.288.28l-.218.049h-.135c-.438 0-.88 0-1.321-.045-.955-.06-1.907-.168-2.862-.239-2.775-.21-5.336-.374-8.111 0-5.044.692-10.46-.026-15.613-.116v-1.586c0-.771-.142-1.683 1.217-2.618 1.36-.935 2.948-1.242 7.49-2.214 4.543-.973 8.284-4.358 8.284-4.358l.292-2.853.955-.633h5.307v3.273h4.868l2.902.183 1.416 4.489-.405 4.589-.778 1.799ZM288.688 179.077l-21.253.056-1.91 1.695s-3.977 6.93-3.632 6.93h13.635c.438 0 4.325-.748 5.789-1.563 1.465-.816 5.352-4.279 5.352-4.279l2.019-2.839Z" fill="#F8EFE5"/><path d="M186.029 159.757v4.114h38.999s-.352-1.201.292-4.114h-39.291Z" fill="#EBC7B5"/><path d="m231.718 232.19.188 2.245 4.183-.419s.558-1.826-.637-1.826h-3.734Z" fill="#1B1B1B"/><path d="M356.829 226.383c.045 1.867.135 3.737.27 5.61.177 2.493.427 4.996.749 7.507.033.25.067.497.105.748.412 2.964.936 5.939 1.573 8.924h12.126c.636-2.993 1.16-5.967 1.572-8.924a112.714 112.714 0 0 0 .854-8.255 119.006 119.006 0 0 0-1.977-31.683 72.095 72.095 0 0 0-.457-2.214h-12.111c-.162.748-.315 1.486-.457 2.214a119.006 119.006 0 0 0-2.247 26.073Z" fill="#F8EFE5"/><path d="M357.099 231.995c.177 2.494.427 4.996.749 7.507.033.25.067.497.104.748h15.272c.038-.251.071-.498.105-.748.335-2.506.584-5.008.749-7.507h-16.979ZM359.085 200.31h13.024a69.226 69.226 0 0 0-.457-2.214h-12.111a69.564 69.564 0 0 0-.456 2.214Z" fill="#1B1B1B"/><path d="M369.86 166.026a1.4 1.4 0 0 1 2.782.294l-2.482 23.425a1.4 1.4 0 0 1-2.782-.294l2.482-23.425Z" fill="#EBC7B5"/><path d="M229.337 74.772a5.823 5.823 0 0 1-5.827-5.82 5.823 5.823 0 0 1 5.827-5.82 5.823 5.823 0 0 1 5.827 5.82 5.823 5.823 0 0 1-5.827 5.82Z" fill="#3C8AAC"/><path d="M240.246 65.561a3.9 3.9 0 0 1-3.902-3.897 3.9 3.9 0 0 1 3.902-3.897 3.9 3.9 0 0 1 3.902 3.897 3.9 3.9 0 0 1-3.902 3.897Z" stroke="#1B1B1B" stroke-width=".801" stroke-linecap="round" stroke-linejoin="round"/><path d="M223.518 58.104a1.95 1.95 0 1 1 0-3.897 1.95 1.95 0 0 1 1.951 1.949 1.95 1.95 0 0 1-1.951 1.948Z" fill="#1B1B1B"/><path d="M230.159 77.188c-6.493 0-11.756-5.257-11.756-11.74 0-6.485 5.263-11.741 11.756-11.741 6.492 0 11.755 5.256 11.755 11.74s-5.263 11.74-11.755 11.74Z" stroke="#1B1B1B" stroke-width=".717" stroke-linecap="round" stroke-linejoin="round"/><path d="M223.632 76.455a3.147 3.147 0 0 1-3.15-3.145 3.148 3.148 0 0 1 3.15-3.146 3.147 3.147 0 0 1 3.149 3.146 3.147 3.147 0 0 1-3.149 3.145Z" fill="#EBC7B5"/><path d="m306.826 98.479-4.145-2.069V86.028h-1.895s-2.307-3.43-2.307-3.67c0-.239-1.872-4.267-2.056-5.4-.183-1.134-.719-3.666-.554-5.674.165-2.009.187-2.345.187-2.345l-.749-3.366.775-5.79-1.809-1.23s-1.939-1.964-1.939-4.063c0-2.098.636-4.282 1.569-5.217.932-.935 4.422-3.76 10.01-3.202 5.587.558 12.115 5.33 12.115 5.33l1.31-.374s4.199.785 6.314 4.14c2.116 3.355 1.498 12.343 1.498 12.343l-.415 1.66v.947l-.349 1.444-1.071.115s-.209 3.116-1.707 4.421c-1.498 1.306-1.326 1.541-1.326 1.541v12.429h-5.681l-1.434 4.114-6.341 7.308-.853-1.896.853-1.114Z" fill="#F8EFE5"/><path d="M279.461 194.413h-20.369M344.688 155.014c-3.996 1.331-8.85 1.993-14.669 1.993h-11.235c-8.239 0-12.733 2.992-17.976 14.587-2.786 6.167-5.681 12.227-9.362 16.55M334.906 101.483c23.619 3.569 27.75 22.916 24.716 36.452" stroke="#1B1B1B" stroke-width=".801" stroke-linecap="round" stroke-linejoin="round"/><path d="M342.769 110.036a21.51 21.51 0 0 1 4.831 3.209c5.306 4.717 7.115 11.92 6.411 18.862-1.213 12.227-7.115 18.701-25.091 18.701h-11.235c-8.239 0-17.627 4.114-22.844 15.709-5.64 12.555-8.883 21.221-21.346 21.221H262.26" stroke="#1B1B1B" stroke-width=".801" stroke-linecap="round" stroke-linejoin="round"/><path d="m284.86 126.173 2.468-11.8Z" fill="#F8EFE5"/><path d="m284.86 126.173 2.468-11.8M300.079 94.54l-.36-4.293h2.962v16.643l10.486-12.716 1.438-4.114h7.614" stroke="#1B1B1B" stroke-width=".801" stroke-linecap="round" stroke-linejoin="round"/><path d="M246.794 215.637c2.008 5.569 3.371 9.216 3.371 9.216 5.752.8 9.718-.842 11.983-4.825l-4.677-20.878" fill="#1B1B1B"/><path d="M246.794 215.637c2.008 5.569 3.371 9.216 3.371 9.216 5.752.8 9.718-.842 11.983-4.825l-4.677-20.878M297.675 145.171s-.985 3.288-1.281 4.993a1.408 1.408 0 0 0 .922 1.582l1.614.524" stroke="#1B1B1B" stroke-width=".801" stroke-linecap="round" stroke-linejoin="round"/><path d="M299.878 146.084s-.985 3.288-1.277 4.993c-.062.33-.004.671.164.962.169.29.436.51.754.62l1.614.524" stroke="#1B1B1B" stroke-width=".801" stroke-linecap="round" stroke-linejoin="round"/><path d="M302.062 147.393a41.522 41.522 0 0 0-1.258 4.596 1.402 1.402 0 0 0 .917 1.586l2.124.688a1.497 1.497 0 0 0 1.794-.796l.707-1.455a1.122 1.122 0 0 0-.292-1.358l-.209-.172a.986.986 0 0 0-1.367.116l-.749.83" stroke="#1B1B1B" stroke-width=".801" stroke-linecap="round" stroke-linejoin="round"/><path opacity=".84" d="M236.435 95.575c3.453.13 6.336.198 7.827.022a2.246 2.246 0 0 0 1.704-1.01 2.56 2.56 0 0 0 .411-1.317 2.559 2.559 0 0 0-.336-1.338c-.682-1.246-1.873-3.56-2.154-4.81a1.589 1.589 0 0 1 .678-1.773.884.884 0 0 1 1.213.228l6.221 9.093c.573.837.876 2.805.876 2.805 0 6.956-4.045 9.35-8.089 9.504-1.592.059 1.176.033 0 0-1.397-.042-5.176-.509-6.232-1.373l-2.894-2.368a3.09 3.09 0 0 1-1.124-2.39v-5.752a.576.576 0 0 1 .592-.557v0a1.317 1.317 0 0 1 1.318 1.036 51.81 51.81 0 0 1 .712 5.322s2.247 1.765 2.995 2.472M228.562 98.288l-.46-.09a2.307 2.307 0 0 1-1.187-.62c-2.15-2.114-5.314-5.715-6.509-7.107a.556.556 0 0 1 .199-.875 1.927 1.927 0 0 1 1.805.094 30.523 30.523 0 0 1 4.149 3.284" stroke="#1B1B1B" stroke-width=".777" stroke-linecap="round" stroke-linejoin="round"/><path d="m231.828 99.963-1.52-.288a1.828 1.828 0 0 1-1.378-1.122l-3.109-8.228a.562.562 0 0 1 .555-.748h.602a1.353 1.353 0 0 1 1.191.677c.727 1.305 2.247 4.192 2.573 5.748" stroke="#1B1B1B" stroke-width=".777" stroke-linecap="round" stroke-linejoin="round"/><path d="m234.523 102.306-1.292-.408a1.777 1.777 0 0 1-1.205-1.215l-2.18-7.925a.56.56 0 0 1 .115-.49.57.57 0 0 1 .458-.206h.547a1.345 1.345 0 0 1 1.262.838c.374 1.024 1.052 2.82 1.546 4.462l.749 2.472" stroke="#1B1B1B" stroke-width=".777" stroke-linecap="round" stroke-linejoin="round"/><path d="M273.258 126.915a18.345 18.345 0 0 0 2.46-1.32c.648-.404 4.988-2.948 6.149-3.632M244.788 106.97s2.363-.228 5.243 2.618c1.367 1.369 4.737 5.087 7.883 8.603M271.875 115.817s-12.265-10.05-14.886-12.668c-2.622-2.618-4.119-4.114-4.119-6.358M313.656 146.19c-.895.408-1.329.853-2.217 1.612a8.798 8.798 0 0 1-6.879 1.919l-1.124 2.364M347.25 140.556c1.498 5.61-1.872 8.228-8.613 8.228-5.243 0-16.287-3.366-23.219-2.992a4.97 4.97 0 0 0-1.76.404M308.201 138.279a26.076 26.076 0 0 1 3.467-.718c5.618-.748 20.41-.441 20.41-.441s-4.741-11.262-9.564-21.08M297.152 147.019l-3.322 2.207c-.082.071-.16.147-.232.228l-3.265 3.445a1.903 1.903 0 0 1-2.056.554l-.143-.053a.747.747 0 0 1-.34-1.122c.883-1.257 2.168-3.332 4.04-5.303 2.247-2.36 3.266-3.262 4.869-3.935 2.97-1.249 7.115-3.49 11.508-4.754" stroke="#1B1B1B" stroke-width=".801" stroke-linecap="round" stroke-linejoin="round"/><path d="M298.938 160.079h-38.33a9.746 9.746 0 0 0-8.793 6.53l-23.282 63.707c3.277 2.596 7.018 4.114 11.609 4.114l25.529-53.896a2.548 2.548 0 0 1 2.307-1.459h20.713c3.273-6.126 4.3-8.464 6.15-12.555a24.758 24.758 0 0 1 4.097-6.441Z" fill="#1B1B1B" stroke="#1B1B1B" stroke-width=".801" stroke-linecap="round" stroke-linejoin="round"/><path d="m248.76 217.258 10.396-21.955" stroke="#fff" stroke-width=".801" stroke-linecap="round" stroke-linejoin="round"/><path d="M273.972 137.448a48.577 48.577 0 0 0 8.684-6.695M229.718 156.058c-3.225 3.13-5.618 7.529-4.494 13.483 1.337 6.919 4.333 14.568 10.486 19.412 5.774 4.54 4.617 3.684 4.617 3.684M271.975 194.411h49.639a17.032 17.032 0 0 0 8.397-2.217 17.006 17.006 0 0 0 6.208-6.068c7.164-11.998 19.399-32.408 23.219-47.522M302.68 97.913V87.72M320.281 90.063V74.717" stroke="#1B1B1B" stroke-width=".801" stroke-linecap="round" stroke-linejoin="round"/><path d="M237.762 204.372c.445-5.308-.918-10.233-6.685-19.913a41.793 41.793 0 0 0 6.093 5.633c3.187 2.289 3.168 2.543 3.168 2.543l1.959 7.338-3.558 4.399h-.977ZM275.53 194.413c3.558 0 10.239 0 10.239 9.04s-1.318 45.907-1.318 45.907h2.996s1.318-38.412 1.318-45.892c0-9.04 9.047-9.04 9.047-9.04l-22.282-.015Z" fill="#1B1B1B" stroke="#1B1B1B" stroke-width=".801" stroke-linecap="round" stroke-linejoin="round"/><path d="M273.297 194.413s4.052.034 2.947 5.341l-12.328 49.606h2.434l12.598-49.176a8.33 8.33 0 0 1 2.88-4.716l-2.367-1.055h-6.164Z" fill="#1B1B1B" stroke="#1B1B1B" stroke-width=".801" stroke-linecap="round" stroke-linejoin="round"/><path d="M160.655 249.357h217.626" stroke="#1B1B1B" stroke-width=".801" stroke-linecap="round" stroke-linejoin="round"/><path opacity=".83" d="M315.711 194.41s1.157.052 3.115.037c4.891-.037 7.49 7.596 7.49 7.596l15.111 47.314h3.112s-8.928-28.314-12.358-39.007c-3.431-10.693-3.798-11.052 5.595-26.817 0 0-3.91 7.832-10.598 9.852-4.959 2.225-11.467 1.025-11.467 1.025Z" fill="#1B1B1B" stroke="#1B1B1B" stroke-width=".801" stroke-linecap="round" stroke-linejoin="round"/><path d="M209.572 241.215c1.356-.935 2.948-1.242 7.49-2.214 4.543-.973 8.284-4.357 8.284-4.357l.292-2.854.955-.644h4.31l.783.419.214 2.854h4.868l2.902.183 1.416 4.489-.405 4.589-.868 1.986a6.139 6.139 0 0 0-2.296-.079c-1.872.288-8.239.217-8.52.172h.049a6.676 6.676 0 0 0-3.187.232c-1.071-.022-2.138-.045-3.191-.056-2.501-.022-4.988-.179-7.489-.284-2.274-.09-4.543 0-6.816-.041v-1.807c.007-.744-.15-1.657 1.209-2.588Z" fill="#F8EFE5"/><path d="M237.848 248.833h-27.806a1.829 1.829 0 0 1-1.827-1.825v-1.354h31.457v1.354a1.814 1.814 0 0 1-.533 1.291 1.819 1.819 0 0 1-1.291.534ZM239.671 245.652c1.936-1.313 2.003-11.134-.536-11.22H231.9" stroke="#1B1B1B" stroke-width=".801" stroke-linecap="round" stroke-linejoin="round"/><path d="M231.906 235.541v-3.332a1.052 1.052 0 0 0-.306-.754 1.046 1.046 0 0 0-.754-.308h-4.258a1.028 1.028 0 0 0-1.026 1.028v2.244l-2.827 1.803a27.548 27.548 0 0 1-7.28 3.276l-5.681 1.616a2.321 2.321 0 0 0-1.566 2.188v2.338M261.237 221.377l.749 2.416c.072.333.011.68-.168.969a8.388 8.388 0 0 1-3.318 3.314M251.504 224.989l.449 1.324" stroke="#1B1B1B" stroke-width=".801" stroke-linecap="round" stroke-linejoin="round"/><path d="M302.053 140.482a18.27 18.27 0 0 0 4.314-1.844l8.306-32.936c2.681-11.415 11.71-9.956 14.171-9.17a4.768 4.768 0 0 0-.446-.147l-5.426-2.135a3.657 3.657 0 0 0-1.397-.254c-4.546.078-7.685 2.674-9.759 9.185-.802 2.518-5.865 22.385-9.763 37.301Z" fill="#1B1B1B"/><path d="M328.445 96.409a13.43 13.43 0 0 1-.932-.375l.932.375Z" fill="#39B54A"/><path d="M297.666 157.261s.374-1.62 1.262-4.99a14.711 14.711 0 0 0 3.588 1.613l-.749 2.924-4.101.453ZM293.135 99.913c.913-3.396 1.951-5.292 7.115-5.61v.46c-1.588.789-2.996 2.465-3.7 5.7l-10.958 57.068-2.936-.292s9.374-53.197 10.479-57.326Z" fill="#1B1B1B"/><path d="m293.055 150.311-1.543 6.953M302.68 106.889l-8.254 37.214M313.654 146.194s1.318-6.759-5.452-7.915M329.368 137.119l6.366.105" stroke="#1B1B1B" stroke-width=".801" stroke-linecap="round" stroke-linejoin="round"/><path d="M234.523 95.432h-1.146" stroke="#1B1B1B" stroke-width=".777" stroke-linecap="round" stroke-linejoin="round"/><path d="m245.075 202.957 12.969-33.227 8.089-5.611-1.787-2.502-17.451-2.289c-6.685-.886-14.98 3.931-9.594 23.133 1.734 6.194 2.696 10.001 5.022 16.921" fill="#1B1B1B"/><path d="m245.075 202.957 12.969-33.227 8.089-5.611-1.787-2.502-17.451-2.289c-6.685-.886-14.98 3.931-9.594 23.133 1.734 6.194 2.696 10.001 5.022 16.921" stroke="#1B1B1B" stroke-width=".801" stroke-linecap="round" stroke-linejoin="round"/><path d="M261.109 160.107h-.498a9.74 9.74 0 0 0-8.793 6.508l-15.931 41.516" stroke="#fff" stroke-width=".801" stroke-linecap="round" stroke-linejoin="round"/><path d="M298.935 160.078h-65.791a2.496 2.496 0 0 1-2.28-1.47l-15.883-35.094a1.685 1.685 0 0 1 .11-1.588 1.68 1.68 0 0 1 1.388-.783l48.007-.673a2.844 2.844 0 0 1 2.621 1.675l15.729 35.113h18.492l-2.393 2.82Z" fill="#F8EFE5" stroke="#1B1B1B" stroke-width=".801" stroke-linecap="round" stroke-linejoin="round"/><path d="M303.281 74.031c-.749.599-2.067.718-2.651.674-.708-.053-.914-.457-.903-.917.051-2.234.273-4.461.667-6.661M299.719 64.704a3.093 3.093 0 0 0-3.315.28" stroke="#1B1B1B" stroke-width=".801" stroke-linecap="round" stroke-linejoin="round"/><path d="M322.096 67.638a6.12 6.12 0 0 0-.101-1.122v-1.178l6.692 6.358a.413.413 0 0 1 0 .576l-.569.584a.411.411 0 0 1-.573 0l-5.464-5.203s.015 0 .015-.015ZM313.904 57.6l4.658 4.488a1.927 1.927 0 0 0-1.153 1.148l-4.629-4.443-1.337-2.424 2.461 1.23Z" fill="#EBC7B5"/><path d="M327.55 72.878a.407.407 0 0 0 .573 0l.569-.587a.405.405 0 0 0 .12-.286.394.394 0 0 0-.12-.286l-2.558-2.416a.395.395 0 0 1-.056.475l-.565.583a.41.41 0 0 1-.577 0l2.614 2.517ZM311.438 56.365l1.337 2.424 1.123-1.175-2.46-1.249Z" fill="#1B1B1B"/><path d="M299.557 53.935a15.363 15.363 0 0 0-4.261 11.651s.749 2.491.749 3.366c0 .876-.723 3.782.588 8.517a35.82 35.82 0 0 0 3.306 7.764 2.092 2.092 0 0 0 1.82 1.059h4.154a5.34 5.34 0 0 0 3.119-1.006c2.528-1.81 7.636-5.573 8.479-6.96 1.123-1.87 1.153-4.908 1.153-4.908M318.743 71.297c1.015 0 1.667-.546 2.434-1.45.708-.828 1.266-2.13.982-4.49-.607-5.067-5.401-4.237-5.401-.28" stroke="#1B1B1B" stroke-width=".801" stroke-linecap="round" stroke-linejoin="round"/><path d="M316.977 63.681s-3.715 2.244-7.46-5.116M307.914 57.065s-7.067-6.142-11.849-1.365M302.961 64.647c1.749-.527 4.119-.374 4.955-.086.835.288 2.756 2.308 2.756 2.308M321.23 76.266s2.831-.984 1.891-4.597M325.086 73.523a5.778 5.778 0 0 0-.697-1.967M316.76 50.943c6.681.748 8.396 6.64 8.396 9.194V67.5" stroke="#1B1B1B" stroke-width=".801" stroke-linecap="round" stroke-linejoin="round"/><path d="M317.789 52.876s-3.91-3.707-8.917-5.67c-5.007-1.964-12.021-1.717-15.114 2.244-3.093 3.96-.704 7.929.779 9.41M301.197 77.863c2.385.329 3.962-.232 4.554-.232.591 0 0 2.177-2.019 2.476-.534.065-1.077 0-1.58-.19" stroke="#1B1B1B" stroke-width=".801" stroke-linecap="round" stroke-linejoin="round"/><path d="M305.344 68.436c-.118-.545.082-1.05.446-1.129.364-.078.754.3.872.846.118.545-.082 1.05-.446 1.128-.364.079-.754-.3-.872-.845ZM297.43 68.728c-.118-.545.082-1.05.446-1.129.364-.078.754.3.872.846.118.545-.082 1.05-.446 1.129-.364.078-.754-.3-.872-.846Z" fill="#1B1B1B"/><path d="m224.719 234.974 3.812 4.32M222.16 236.662l2.801 3.426M220.073 238.064l1.958 2.634" stroke="#1B1B1B" stroke-width=".801" stroke-linecap="round" stroke-linejoin="round"/><path d="M244.515 144.91c-2.874-2.395-3.851-5.957-2.182-7.956 1.67-1.998 5.354-1.676 8.228.719 2.874 2.395 3.851 5.957 2.182 7.955-1.67 1.999-5.353 1.677-8.228-.718ZM224.055 131.949h7.086l-3.199-7.08h-7.089l3.202 7.08Z" fill="#EBC7B5"/><path d="M221.391 125.995h7.086l-.528-1.126h-7.09l.532 1.126Z" fill="#1B1B1B"/><path d="M193.231 170.253s.562 14.893-.374 26.267c-.749 9.351-1.652 18.828-5.434 27.464-1.288-3.366-3.284-6.163-5.359-9.118 3.531 1.122 3.067-5.102 3.43-7.215a596.812 596.812 0 0 1 2.03-11.056c1.442-7.435.974-6.957 2.719-14.329.906-3.826 2.988-12.013 2.988-12.013Z" fill="#F8EFE5"/><path d="M184.862 231.044c-1.382-21.652-1.528-38.311-8.059-59.151 6.868 9.369 9.25 22.815 10.927 34.009 1.678 11.194-.644 11.172-.827 22.475l-1.446-2.689" fill="#EBC7B5"/><path d="M188.853 229.564c-.762.053-1.516.19-2.247.407 0-.048.033-.093.048-.142 3.588-10.173 4.666-17.171 14.643-28.522-5.209 9.724-8.201 19.119-10.887 28.148l-1.557.109Z" fill="#F8EFE5"/><path d="M186.034 230.151c-1.196.085-2.392.163-3.587.235a25.258 25.258 0 0 1-.263-3.508 111.234 111.234 0 0 0-4.778-35.778 53.02 53.02 0 0 1 10.313 28.799c.139 2.824.311 6.485-.108 9.833a10.59 10.59 0 0 0-1.577.419Z" fill="#F8EFE5"/><path d="m189.476 229.516-.629.044c-.964.067-1.915.266-2.824.591l-1.165.075a226.648 226.648 0 0 1 2.738-13.139 230.615 230.615 0 0 1 5.617-19.722 235.954 235.954 0 0 1 3.475-9.665c.749-1.963 3.648-8.905 3.648-8.905s-4.618 20.474-6.033 28.519c-1.307 7.48-2.569 14.957-4.827 22.202Z" fill="#EBC7B5"/><path d="M187.633 229.724a11.03 11.03 0 0 0-1.599.43c-1.031.075-2.065.142-3.101.202-3.082-13.158-8.891-25.807-14.669-38.295 10.269 10.483 17.032 23.806 19.369 37.663Z" fill="#EBC7B5"/><path d="M174.735 220.903c0 6.336 5.243 11.471 11.711 11.471 6.467 0 11.71-5.135 11.71-11.471h-23.421Z" fill="#F8EFE5"/><path d="M174.735 219.443h23.421v1.455h-23.421v-1.455Z" fill="#1B1B1B"/><path d="M198.812 225.838h-24.083M193.699 225.838l7.692 23.331M179.844 225.838l-7.756 23.518" stroke="#1B1B1B" stroke-width=".934" stroke-linecap="round" stroke-linejoin="round"/><path d="M242.294 246.398v-2.965l.936-1.642 2.662-1.751 3.674-9.148-.595-3.206.801-1.316 6.816.374 1.288.71.427 1.07.981-.976 2.734-3.205-.232-1.654s1 0 1.689 1.272c.689 1.272 2.228 3.467 2.228 6.201 0 2.734-7.699 12.736-7.699 12.736l-2.697 3.489-13.013.011Z" fill="#F8EFE5"/><path d="m258.831 230.223-.697-2.263a1.723 1.723 0 0 0-1.546-1.216l-5.827-.374a1.736 1.736 0 0 0-1.79 2.155l.602 2.367-3.078 8.18a3.084 3.084 0 0 1-1.318 1.571l-1.932 1.148a1.91 1.91 0 0 0-.937 1.642v2.966h13.006s8.434-10.536 10.299-15.241a6.862 6.862 0 0 0-.464-3.875 45.792 45.792 0 0 0-2.15-4.159s-.191-.423-1.206-.423c0 0 1.243 2.618-3.292 5.375" stroke="#1B1B1B" stroke-width=".801" stroke-linecap="round" stroke-linejoin="round"/><path d="M242.3 246.399v2.192a.76.76 0 0 0 .226.543.76.76 0 0 0 .545.224l13.242-.03a1.412 1.412 0 0 0 1.165-.614l9.696-14.205a2.513 2.513 0 0 0 .344-2.124c-.213-.715-1.007-1.612-1.569-2.465M249.337 232.072l6.64.195M248.118 235.072l6.538.206M246.803 238.17l5.947.131M242.892 242.349H252" stroke="#1B1B1B" stroke-width=".801" stroke-linecap="round" stroke-linejoin="round"/><path fill-rule="evenodd" clip-rule="evenodd" d="M184.938 295.865c1.718 0 3.379.322 4.938.977a12.815 12.815 0 0 1 4.027 2.652 12.66 12.66 0 0 1 1.547 1.831c.455.665.853 1.365 1.172 2.097.66 1.52 1.001 3.14 1.001 4.816 0 1.676-.33 3.296-1.001 4.816a12.3 12.3 0 0 1-1.172 2.097 12.66 12.66 0 0 1-1.547 1.831 12.881 12.881 0 0 1-4.027 2.652 12.87 12.87 0 0 1-4.938.977 12.66 12.66 0 0 1-4.937-.977 12.881 12.881 0 0 1-4.028-2.652 12.66 12.66 0 0 1-1.547-1.831 12.775 12.775 0 0 1-1.172-2.097 12.024 12.024 0 0 1-1.001-4.816c0-1.676.33-3.296 1.001-4.816a12.3 12.3 0 0 1 1.172-2.097 12.66 12.66 0 0 1 1.547-1.831 12.815 12.815 0 0 1 4.028-2.652 12.952 12.952 0 0 1 4.937-.977Zm0-.788c-7.452 0-13.493 5.893-13.493 13.161s6.041 13.161 13.493 13.161 13.493-5.893 13.493-13.161c.011-7.268-6.03-13.161-13.493-13.161Zm28.46 15.629 2.07-5.97c.603-1.731.33-2.219-1.593-2.219v-.588h5.643v.588c-1.888 0-2.343.444-3.094 2.574l-3.425 10.01h-.375l-3.06-9.155-3.118 9.155h-.386l-3.334-10.01c-.717-2.141-1.206-2.574-2.935-2.574v-.588h6.655v.588c-1.774 0-2.252.41-1.615 2.219l2.014 5.97 3.026-8.777h.569l2.958 8.777Zm33.301-5.848h-5.37v.555c1.684 0 1.945.355 1.945 2.43v3.739c0 2.076-.273 2.453-1.945 2.453-1.286-.178-2.162-.844-3.356-2.131l-1.377-1.465c1.854-.321 2.844-1.464 2.844-2.752 0-1.609-1.41-2.84-4.05-2.84h-5.279v.555c1.684 0 1.946.355 1.946 2.43v3.739c0 2.075-.273 2.453-1.946 2.453v.555h5.973v-.555c-1.684 0-1.945-.378-1.945-2.453v-1.054h.512l3.333 4.062h8.726c4.289 0 6.143-2.22 6.143-4.883-.011-2.652-1.865-4.838-6.154-4.838Zm-12.572 4.76v-3.884h1.229c1.354 0 1.945.91 1.945 1.965 0 1.02-.603 1.93-1.945 1.93h-1.229v-.011Zm12.663 4.073h-.205c-1.081 0-1.229-.267-1.229-1.609v-6.348h1.445c3.117 0 3.686 2.22 3.686 3.951-.011 1.775-.58 4.006-3.697 4.006Zm-29.183-3.982c0 2.897 2.697 5.271 5.996 5.271 3.299 0 5.995-2.374 5.995-5.271 0-2.863-2.696-5.237-5.995-5.237s-5.996 2.374-5.996 5.237Zm2.276 0c0-1.897.955-4.327 3.72-4.327 2.787 0 3.743 2.43 3.754 4.327 0 1.931-.967 4.328-3.754 4.328-2.765 0-3.72-2.397-3.72-4.328Zm40.374 4.304v.588h-6.872v-.588c2.014 0 2.367-.499 2.367-3.418v-4.683c0-2.929-.364-3.395-2.367-3.395v-.588h6.212c3.095 0 4.801 1.553 4.801 3.628 0 2.02-1.706 3.596-4.801 3.596h-1.706v1.431c-.012 2.93.352 3.429 2.366 3.429Zm-.66-11.03h-1.706v5.093h1.706c1.684 0 2.457-1.143 2.457-2.519 0-1.409-.785-2.574-2.457-2.574Zm25.259 9.387.148-.521v-.022h.455l-.182 2.752h-12.332l-3.333-4.062h-.512v1.054c0 2.075.261 2.453 1.945 2.453v.555h-5.973v-.555c1.673 0 1.946-.378 1.946-2.453v-3.739c0-2.075-.262-2.43-1.946-2.43v-.555h5.279c2.639 0 4.05 1.231 4.05 2.84 0 1.288-.99 2.431-2.844 2.752l1.377 1.465c1.183 1.276 2.047 1.942 3.31 2.131 1.331-.078 1.559-.555 1.559-2.453v-3.739c0-2.075-.262-2.43-1.946-2.43v-.555h8.817l.205 2.752h-.478l-.148-.555c-.273-.965-.603-1.321-2.73-1.321h-1.65v3.285c2.333 0 2.515-.211 2.515-1.731h.568v4.361h-.568c0-1.531-.171-1.731-2.515-1.731v1.343c0 2.075.273 2.43 1.832 2.43h.421c2.127 0 2.457-.355 2.73-1.321Zm-15.756-6.636v3.895h1.228c1.343 0 1.946-.91 1.946-1.93 0-1.055-.592-1.965-1.946-1.965H269.1Zm21.99 9.243c-1.194 0-2.252-.61-2.696-.998-.148.144-.421.588-.478.998h-.569v-4.039h.603c.239 1.931 1.616 3.074 3.391 3.074.955 0 1.74-.522 1.74-1.409 0-.766-.694-1.343-1.922-1.898l-1.707-.788c-1.194-.555-2.105-1.52-2.105-2.807 0-1.41 1.354-2.608 3.209-2.608.989 0 1.831.355 2.343.766.148-.123.296-.444.387-.788h.569v3.451h-.626c-.205-1.376-.99-2.519-2.582-2.519-.842 0-1.616.466-1.616 1.198 0 .766.626 1.165 2.071 1.809l1.649.788c1.445.677 2.014 1.753 2.014 2.63-.023 1.853-1.672 3.14-3.675 3.14Zm6.372-.998c.443.388 1.501.998 2.696.998 2.014 0 3.663-1.287 3.675-3.14 0-.877-.569-1.953-2.014-2.63l-1.65-.788c-1.445-.644-2.07-1.043-2.07-1.809 0-.732.773-1.198 1.615-1.198 1.593 0 2.378 1.143 2.583 2.519h.625v-3.451h-.568c-.091.344-.239.665-.387.788-.512-.411-1.354-.766-2.344-.766-1.854 0-3.208 1.198-3.208 2.608 0 1.287.91 2.252 2.105 2.807l1.706.788c1.229.555 1.923 1.132 1.923 1.898 0 .887-.785 1.409-1.741 1.409-1.775 0-3.151-1.143-3.39-3.074h-.603v4.039h.569c.057-.41.33-.854.478-.998Zm-117.256 3.911c-3.754-1.776-6.337-5.538-6.337-9.877 0-1.586.341-3.096.967-4.46l5.37 14.337Zm11.57-13.45c.432.733.933 1.676.933 3.03 0 .932-.307 2.041-.819 3.617l-1.161 3.584-4.072-11.806c.671-.034 1.285-.1 1.285-.1.614-.067.535-.932-.068-.899 0 0-1.832.144-3.004.144-1.103 0-2.958-.144-2.958-.144-.602-.045-.671.865-.068.899 0 0 .58.077 1.183.1l1.752 4.682-2.457 7.202-4.096-11.884c.672-.034 1.286-.1 1.286-.1.614-.067.535-.932-.068-.899 0 0-1.832.144-3.004.144-.216 0-.466 0-.728-.011 2.014-2.985 5.472-4.949 9.397-4.949 2.936 0 5.598 1.098 7.6 2.885-.023 0-.048-.003-.074-.006-.026-.002-.051-.005-.074-.005-1.103 0-1.888.932-1.888 1.942 0 .842.457 1.56.976 2.375l.127.199Zm-9.841 14.104 3.379-9.565 3.447 9.232a.694.694 0 0 0 .08.156 11.493 11.493 0 0 1-3.732.621c-1.103 0-2.161-.155-3.174-.444Zm13.129-14.659c0-.41-.034-.787-.08-1.131a10.874 10.874 0 0 1 1.388 5.259c0 4.051-2.252 7.591-5.597 9.488l3.436-9.687c.637-1.565.853-2.819.853-3.929Z" fill="#fff"/><path d="M171.61 351.992h2.586v10.838h1.647v-10.838h2.586v-1.516h-6.819v1.516Zm9.843 6.341c0-1.63.758-2.454 1.994-2.454 1.235 0 1.993.824 1.993 2.454v4.497h1.647v-4.826c0-2.422-1.334-3.575-3.13-3.575-1.087 0-1.993.511-2.504 1.466v-5.419h-1.647v12.354h1.647v-4.497Zm15.483.379c0-2.52-1.713-4.283-4.052-4.283-2.339 0-4.052 1.763-4.052 4.283 0 2.52 1.713 4.283 4.052 4.283 1.895 0 3.328-.939 3.838-2.636h-1.779c-.329.742-.988 1.186-1.993 1.186-1.383 0-2.306-.84-2.504-2.273h6.457c.017-.181.033-.362.033-.56Zm-4.052-2.833c1.318 0 2.224.824 2.422 2.207h-4.843c.198-1.383 1.087-2.207 2.421-2.207Zm10.507-3.08c.643 0 1.087-.478 1.087-1.104 0-.626-.444-1.087-1.087-1.087-.626 0-1.087.461-1.087 1.087 0 .626.461 1.104 1.087 1.104Zm.824 10.031v-8.236h-1.647v8.236h1.647Zm8.484 0h1.647v-12.354h-1.647v5.354c-.643-.873-1.598-1.401-2.702-1.401-2.256 0-3.953 1.763-3.953 4.283 0 2.52 1.697 4.283 3.953 4.283 1.104 0 2.059-.527 2.702-1.4v1.235Zm-2.504-6.885c1.433 0 2.504 1.103 2.504 2.767s-1.071 2.767-2.504 2.767-2.504-1.103-2.504-2.767 1.071-2.767 2.504-2.767Zm14.087 2.767c0-2.52-1.713-4.283-4.052-4.283-2.339 0-4.052 1.763-4.052 4.283 0 2.52 1.713 4.283 4.052 4.283 1.894 0 3.327-.939 3.838-2.636h-1.779c-.329.742-.988 1.186-1.993 1.186-1.384 0-2.306-.84-2.504-2.273h6.457c.017-.181.033-.362.033-.56Zm-4.052-2.833c1.318 0 2.224.824 2.421 2.207h-4.842c.197-1.383 1.087-2.207 2.421-2.207Zm11.043 6.951h1.614v-5.765c0-1.911-1.647-2.636-3.426-2.636-1.812 0-3.525.808-3.525 2.932h1.713c0-1.07.741-1.614 1.812-1.614 1.005 0 1.779.445 1.779 1.252 0 1.878-5.551.099-5.551 3.657 0 1.631 1.334 2.339 2.8 2.339 1.186 0 2.24-.461 2.784-1.549v1.384Zm-3.904-2.273c0-1.384 2.504-1.038 3.904-1.713v.593c0 1.433-1.186 2.174-2.454 2.174-.84 0-1.45-.346-1.45-1.054Zm9.452 2.273v-12.354h-1.647v12.354h1.647Zm12.082-4.958h1.713c-.198-2.059-1.894-3.443-4.068-3.443-2.356 0-4.102 1.763-4.102 4.283 0 2.52 1.746 4.283 4.102 4.283 2.24 0 3.969-1.45 4.101-3.624h-1.713c-.165 1.367-1.186 2.108-2.388 2.108-1.401 0-2.455-1.103-2.455-2.767s1.054-2.767 2.455-2.767c1.186 0 2.19.675 2.355 1.927Zm7.137 5.123c2.388 0 4.167-1.763 4.167-4.283 0-2.52-1.779-4.283-4.167-4.283-2.389 0-4.168 1.763-4.168 4.283 0 2.52 1.779 4.283 4.168 4.283Zm0-1.516c-1.433 0-2.52-1.103-2.52-2.767s1.087-2.767 2.52-2.767 2.52 1.103 2.52 2.767-1.087 2.767-2.52 2.767Zm11.465 1.351h1.648v-8.236h-1.648v4.464c0 1.647-.741 2.487-1.943 2.487-1.219 0-1.96-.84-1.96-2.487v-4.464h-1.648v4.793c0 2.455 1.335 3.608 3.097 3.608 1.071 0 1.944-.511 2.454-1.483v1.318Zm5.734-4.134c0-1.697.922-2.553 2.504-2.553.329 0 .625.049.873.131v-1.795a2.388 2.388 0 0 0-.528-.05c-1.251 0-2.256.577-2.849 1.648v-1.483h-1.647v8.236h1.647v-4.134Zm11.354 1.812c0-3.361-5.024-1.895-5.024-3.723 0-.659.593-1.038 1.483-1.038.955 0 1.663.577 1.663 1.367h1.713c0-1.515-1.449-2.685-3.376-2.685-1.779 0-3.146.923-3.146 2.422 0 3.311 4.991 1.729 4.991 3.722 0 .742-.593 1.121-1.598 1.121-1.054 0-1.845-.511-1.845-1.516h-1.713c0 1.796 1.532 2.817 3.558 2.817 1.911 0 3.294-.939 3.294-2.487Zm9.437-1.796c0-2.52-1.713-4.283-4.052-4.283-2.339 0-4.052 1.763-4.052 4.283 0 2.52 1.713 4.283 4.052 4.283 1.894 0 3.327-.939 3.838-2.636h-1.779c-.33.742-.988 1.186-1.993 1.186-1.384 0-2.306-.84-2.504-2.273h6.457c.017-.181.033-.362.033-.56Zm-4.052-2.833c1.318 0 2.224.824 2.421 2.207h-4.842c.197-1.383 1.087-2.207 2.421-2.207Zm11.792 4.134v-3.969h2.372v-1.45h-2.372v-2.438h-1.647v2.438h-1.351v1.45h1.351v4.068c0 2.24 1.153 2.883 2.734 2.883.478 0 .988-.099 1.285-.198v-1.466c-.28.099-.61.148-.972.148-.956 0-1.4-.444-1.4-1.466Zm7.787 2.982c2.388 0 4.167-1.763 4.167-4.283 0-2.52-1.779-4.283-4.167-4.283s-4.167 1.763-4.167 4.283c0 2.52 1.779 4.283 4.167 4.283Zm0-1.516c-1.433 0-2.52-1.103-2.52-2.767s1.087-2.767 2.52-2.767 2.52 1.103 2.52 2.767-1.087 2.767-2.52 2.767Zm11.44 1.351v-12.354h-1.647v12.354h1.647Zm9.934-4.118c0-2.52-1.713-4.283-4.052-4.283-2.339 0-4.052 1.763-4.052 4.283 0 2.52 1.713 4.283 4.052 4.283 1.894 0 3.327-.939 3.838-2.636h-1.779c-.33.742-.989 1.186-1.993 1.186-1.384 0-2.306-.84-2.504-2.273h6.457c.016-.181.033-.362.033-.56Zm-4.052-2.833c1.317 0 2.223.824 2.421 2.207h-4.843c.198-1.383 1.087-2.207 2.422-2.207Zm11.043 6.951h1.614v-5.765c0-1.911-1.647-2.636-3.426-2.636-1.812 0-3.525.808-3.525 2.932h1.713c0-1.07.741-1.614 1.812-1.614 1.004 0 1.779.445 1.779 1.252 0 1.878-5.551.099-5.551 3.657 0 1.631 1.334 2.339 2.8 2.339 1.186 0 2.24-.461 2.784-1.549v1.384Zm-3.904-2.273c0-1.384 2.503-1.038 3.904-1.713v.593c0 1.433-1.186 2.174-2.455 2.174-.84 0-1.449-.346-1.449-1.054Zm9.451-1.861c0-1.697.923-2.553 2.504-2.553.329 0 .626.049.873.131v-1.795a2.378 2.378 0 0 0-.527-.05c-1.252 0-2.257.577-2.85 1.648v-1.483h-1.647v8.236h1.647v-4.134Zm6.644-.363c0-1.63.757-2.454 1.993-2.454 1.235 0 1.993.824 1.993 2.454v4.497h1.647v-4.826c0-2.422-1.334-3.575-3.13-3.575-1.087 0-1.993.511-2.503 1.466v-1.301h-1.647v8.236h1.647v-4.497Zm-175.802 23c0-1.63.758-2.454 1.993-2.454 1.236 0 1.994.824 1.994 2.454v4.497h1.647v-4.826c0-2.422-1.334-3.575-3.13-3.575-1.087 0-1.993.511-2.504 1.466v-5.419h-1.647v12.354h1.647v-4.497Zm11.547 4.662c2.388 0 4.167-1.763 4.167-4.283 0-2.52-1.779-4.283-4.167-4.283-2.389 0-4.168 1.763-4.168 4.283 0 2.52 1.779 4.283 4.168 4.283Zm0-1.516c-1.434 0-2.521-1.103-2.521-2.767s1.087-2.767 2.521-2.767c1.433 0 2.52 1.103 2.52 2.767s-1.087 2.767-2.52 2.767Zm17.131-6.885h-1.581l-1.696 6.803-1.73-6.803h-2.092l-1.729 6.803-1.697-6.803h-1.581l2.223 8.236h2.076l1.762-6.803 1.746 6.803h2.076l2.223-8.236Zm7.204 5.419v-3.969h2.372v-1.45h-2.372v-2.438h-1.647v2.438h-1.35v1.45h1.35v4.068c0 2.24 1.153 2.883 2.735 2.883a4.47 4.47 0 0 0 1.284-.198v-1.466a2.93 2.93 0 0 1-.971.148c-.956 0-1.401-.444-1.401-1.466Zm7.788 2.982c2.388 0 4.167-1.763 4.167-4.283 0-2.52-1.779-4.283-4.167-4.283-2.389 0-4.168 1.763-4.168 4.283 0 2.52 1.779 4.283 4.168 4.283Zm0-1.516c-1.433 0-2.52-1.103-2.52-2.767s1.087-2.767 2.52-2.767 2.52 1.103 2.52 2.767-1.087 2.767-2.52 2.767Zm11.951-3.327c0-1.153.494-1.746 1.334-1.746.857 0 1.351.593 1.351 1.746v4.678h2.388v-4.678c0-1.153.478-1.746 1.334-1.746.84 0 1.335.593 1.335 1.746v4.678h2.388v-5.221c0-2.125-1.219-3.18-2.85-3.18-1.12 0-2.059.544-2.536 1.499-.478-1.004-1.4-1.499-2.537-1.499-.955 0-1.762.445-2.24 1.236v-1.071h-2.356v8.236h2.389v-4.678Zm16.949 4.678h2.306v-5.666c0-1.977-1.729-2.735-3.623-2.735-1.911 0-3.756.841-3.756 2.998h2.356c0-.807.51-1.252 1.334-1.252.741 0 1.301.346 1.301.923 0 1.614-5.238.049-5.238 3.541 0 1.631 1.334 2.356 2.701 2.356 1.137 0 2.092-.412 2.619-1.417v1.252Zm-2.932-2.388c0-.956 1.746-.807 2.883-1.318v.428c0 1.104-.857 1.68-1.845 1.68-.576 0-1.038-.263-1.038-.79Zm9.452-2.158c0-1.236.544-1.878 1.482-1.878.939 0 1.483.642 1.483 1.878v4.546h2.388v-5.09c0-2.207-1.284-3.311-2.998-3.311-1.021 0-1.894.478-2.388 1.335v-1.17h-2.355v8.236h2.388v-4.546Zm12.172 4.546h2.306v-5.666c0-1.977-1.729-2.735-3.624-2.735-1.91 0-3.755.841-3.755 2.998h2.355c0-.807.511-1.252 1.334-1.252.742 0 1.302.346 1.302.923 0 1.614-5.238.049-5.238 3.541 0 1.631 1.334 2.356 2.701 2.356 1.137 0 2.092-.412 2.619-1.417v1.252Zm-2.932-2.388c0-.956 1.746-.807 2.883-1.318v.428c0 1.104-.857 1.68-1.845 1.68-.577 0-1.038-.263-1.038-.79Zm15.217 2.47v-8.318h-2.339v1.054c-.61-.774-1.466-1.219-2.471-1.219-2.24 0-3.838 1.714-3.838 4.283 0 2.553 1.598 4.283 3.838 4.283.972 0 1.812-.428 2.421-1.153v1.103c0 1.302-.691 2.191-1.894 2.191-1.005 0-1.729-.659-1.878-1.647h-2.322c.296 2.191 1.943 3.624 4.25 3.624 2.355 0 4.233-1.68 4.233-4.201Zm-4.349-2.042c-1.12 0-1.943-.857-1.943-2.158s.823-2.158 1.943-2.158c1.137 0 1.96.857 1.96 2.158s-.823 2.158-1.96 2.158Zm14.17-2.158c0-2.52-1.746-4.283-4.168-4.283-2.421 0-4.167 1.763-4.167 4.283 0 2.52 1.746 4.283 4.167 4.283 2.027 0 3.46-.956 3.97-2.767h-2.421c-.231.543-.725.807-1.483.807-1.087 0-1.746-.577-1.943-1.664h6.012c.016-.214.033-.428.033-.659Zm-4.168-2.322c1.005 0 1.664.543 1.862 1.581h-3.723c.198-1.038.857-1.581 1.861-1.581Zm14.378 6.44h2.306v-5.666c0-1.977-1.729-2.735-3.623-2.735-1.911 0-3.756.841-3.756 2.998h2.355c0-.807.511-1.252 1.335-1.252.741 0 1.301.346 1.301.923 0 1.614-5.238.049-5.238 3.541 0 1.631 1.334 2.356 2.701 2.356 1.137 0 2.092-.412 2.619-1.417v1.252Zm-2.932-2.388c0-.956 1.746-.807 2.883-1.318v.428c0 1.104-.857 1.68-1.845 1.68-.576 0-1.038-.263-1.038-.79Zm9.452 2.388v-12.354h-2.388v12.354h2.388Zm4.359 0v-12.354h-2.388v12.354h2.388Zm-131.409 23h2.306v-5.666c0-1.977-1.73-2.735-3.624-2.735-1.911 0-3.756.841-3.756 2.998h2.356c0-.807.51-1.252 1.334-1.252.741 0 1.301.346 1.301.923 0 1.614-5.238.049-5.238 3.541 0 1.631 1.335 2.356 2.702 2.356 1.136 0 2.092-.412 2.619-1.417v1.252Zm-2.932-2.388c0-.956 1.746-.807 2.882-1.318v.428c0 1.104-.856 1.68-1.845 1.68-.576 0-1.037-.263-1.037-.79Zm13.849-.05c0-3.409-4.809-2.075-4.809-3.541 0-.461.444-.741 1.087-.741.724 0 1.268.477 1.268 1.103h2.306c0-1.565-1.548-2.784-3.591-2.784-1.894 0-3.344.956-3.344 2.537 0 3.393 4.744 1.944 4.744 3.558 0 .527-.444.791-1.169.791-.807 0-1.417-.396-1.417-1.203h-2.306c0 1.829 1.614 2.883 3.739 2.883 1.993 0 3.492-.972 3.492-2.603Zm6.34 2.603c2.224 0 3.822-1.73 3.822-4.283 0-2.569-1.598-4.283-3.822-4.283-1.004 0-1.861.445-2.47 1.203v-1.038h-2.356v12.354h2.389v-5.106c.609.725 1.449 1.153 2.437 1.153Zm-.477-2.125c-1.12 0-1.96-.857-1.96-2.158s.84-2.158 1.96-2.158 1.96.857 1.96 2.158-.84 2.158-1.96 2.158Zm13.626-2.158c0-2.52-1.746-4.283-4.168-4.283-2.421 0-4.167 1.763-4.167 4.283 0 2.52 1.746 4.283 4.167 4.283 2.026 0 3.459-.956 3.97-2.767h-2.421c-.231.543-.725.807-1.483.807-1.087 0-1.746-.577-1.943-1.664h6.012c.016-.214.033-.428.033-.659Zm-4.168-2.322c1.005 0 1.664.543 1.862 1.581h-3.723c.198-1.038.857-1.581 1.861-1.581Zm11.142 1.564h2.438c-.214-2.108-1.878-3.525-4.2-3.525-2.422 0-4.217 1.763-4.217 4.283 0 2.52 1.795 4.283 4.217 4.283 2.388 0 4.101-1.483 4.216-3.706h-2.405c-.148 1.054-.905 1.581-1.795 1.581-1.12 0-1.894-.857-1.894-2.158s.79-2.158 1.894-2.158c.89 0 1.631.462 1.746 1.4Zm6.824 1.928v-3.361h2.026v-1.927h-2.026v-2.438h-2.389v2.438h-1.186v1.927h1.186v3.492c0 2.306 1.285 2.982 3.031 2.982.494 0 1.054-.099 1.384-.198v-1.976c-.28.098-.626.148-.906.148-.774 0-1.12-.33-1.12-1.087Zm10.322.51c0-3.409-4.81-2.075-4.81-3.541 0-.461.445-.741 1.087-.741.725 0 1.268.477 1.268 1.103h2.307c0-1.565-1.549-2.784-3.591-2.784-1.895 0-3.344.956-3.344 2.537 0 3.393 4.744 1.944 4.744 3.558 0 .527-.445.791-1.17.791-.807 0-1.416-.396-1.416-1.203h-2.306c0 1.829 1.614 2.883 3.739 2.883 1.993 0 3.492-.972 3.492-2.603Z" fill="#fff"/></g><rect x="137.807" y=".58" width="265.693" height="546.635" rx="36.713" stroke="#1B1B1B" stroke-width="1.16"/><path d="M-5 429.887h520" stroke="#1B1B1B" stroke-width="1.4" stroke-linecap="round" stroke-linejoin="round"/></g><defs><clipPath id="clip0_2708_4636"><path fill="#fff" d="M0 0h569v430H0z"/></clipPath><clipPath id="clip1_2708_4636"><rect x="137.227" width="266.853" height="547.795" rx="37.293" fill="#fff"/></clipPath></defs></svg>