<svg width="216" height="222" fill="none" xmlns="http://www.w3.org/2000/svg"><g clip-path="url('#clip0_2748_3694')"><path d="m145.289 159.185.075-.063.052-.083 49.894-79.263a92.688 92.688 0 0 1 38.661 64.184 92.591 92.591 0 0 1-3.238 38.467 92.474 92.474 0 0 1-87.049 65.683 92.58 92.58 0 0 1-37.878-7.442 92.672 92.672 0 0 1-31.109-21.756l70.592-59.727Z" fill="#0F86A1" stroke="#3C8AAC" stroke-width="1.273"/><path d="M143.695 248.747a93.23 93.23 0 0 1-38.139-7.494 93.304 93.304 0 0 1-31.78-22.396l71.101-60.158 50.25-79.827a93.328 93.328 0 0 1 39.908 69.175m-53.473 91.989a93.103 93.103 0 0 0 31.013-23.401 93.157 93.157 0 0 0 19.314-35.899" stroke="#1B1B1B" stroke-width="1.691"/><path d="M49.442 145.689a93.297 93.297 0 0 0 17.144 64.383l65.513-51.971-82.657-12.412Z" fill="#F8EFE5"/><path d="m80.829 150.402-31.387-4.713a93.232 93.232 0 0 0 .36 22.497m51.797-14.665 30.5 4.58-41.533 32.948m-11.99 9.512-11.99 9.511a93.3 93.3 0 0 1-13.71-27.769" stroke="#1B1B1B" stroke-width="1.691"/><path d="M186.73 73.973a92.855 92.855 0 0 0-41.346-11.44 92.761 92.761 0 0 0-42.061 8.369A92.723 92.723 0 0 0 69.53 97.295a92.772 92.772 0 0 0-18.311 38.781l88.504 13.288 47.007-75.39Z" fill="#9B5C8F"/><path d="M145.384 62.532a92.854 92.854 0 0 1 41.346 11.441l-47.007 75.391-35.061-5.264M69.529 97.295a92.723 92.723 0 0 1 55.046-33.181m-66.437 51.424a92.81 92.81 0 0 0-6.92 20.538l24.376 3.66" stroke="#1B1B1B" stroke-width="1.691"/><path d="M166.917 153.29c.683 1.586 4.812 1.642 4.812 1.642l39.232-1.006s4.308-.63 5.732-1.438c1.245-.706 1.571-4.362 1.571-4.362s.501-14.063-3.838-23.569c-3.86-8.46-13.972-17.271-13.972-17.271s-2.429-2.204-4.812-1.643c-1.486.351-3.819 4.025-3.819 4.025l-24.302 39.574s-1.287 2.464-.604 4.048Z" fill="#EBC7B5"/><path d="m171.736 154.928 39.232-1.006s4.308-.631 5.732-1.438c1.245-.706 1.571-4.363 1.571-4.363m-50.743 1.117 24.302-39.574s2.333-3.674 3.819-4.025c2.383-.562 4.812 1.643 4.812 1.643s10.111 8.811 13.972 17.271" stroke="#1B1B1B" stroke-width="1.691"/></g><defs><clipPath id="clip0_2748_3694"><path fill="#fff" d="M0 0h216v222H0z"/></clipPath></defs></svg>