<svg width="177" height="114" fill="none" xmlns="http://www.w3.org/2000/svg"><path fill-rule="evenodd" clip-rule="evenodd" d="M89.49 7.147c25.222-1.413 53.192 7.25 61.004 31.32 7.815 24.08-10.256 46.77-30.939 61.321-19.438 13.676-45.268 19.982-64.205 5.619-18.114-13.739-16.428-39.614-8.959-61.11C53.28 24.47 68.572 8.317 89.49 7.146Z" fill="#F7D3C1"/><path d="M161.716 27.582c-7.336 0-13.284-5.906-13.284-13.19 0-7.285 5.948-13.19 13.284-13.19 7.337 0 13.284 5.905 13.284 13.19 0 7.284-5.947 13.19-13.284 13.19Z" stroke="#1B1B1B" stroke-width="2.377" stroke-linecap="round" stroke-linejoin="round"/><path d="M3.93 75.14c-2.17 0-3.928-1.747-3.928-3.901 0-2.155 1.759-3.901 3.929-3.901s3.928 1.746 3.928 3.9c0 2.155-1.759 3.901-3.928 3.901Z" fill="#1B1B1B"/></svg>