<svg width="137" height="47" fill="none" xmlns="http://www.w3.org/2000/svg"><path fill-rule="evenodd" clip-rule="evenodd" d="M76.818.22c-3.98.851-7.648 2.518-12.46 5.662-3.49 2.28-6.26 4.568-10.208 8.434-5.476 5.362-8.688 8.996-11.739 13.278-3.214 4.513-6.177 9.962-7.528 13.844-.687 1.977-.788 2.437-.792 3.618-.005 1.238.03 1.38.395 1.67.22.175.514.297.651.27.145-.027.68-1.005 1.269-2.32 1.13-2.523 2.425-4.67 5.578-9.251 3.947-5.732 6.661-8.9 12.666-14.775 6.12-5.988 8.523-7.802 13.854-10.454 5.5-2.737 9.933-4.233 15.376-5.19 2.536-.445 2.902-.697 2.472-1.704-.247-.58-1.758-1.87-2.79-2.386-1.739-.868-4.575-1.161-6.744-.697ZM37.18 3.083c-.294.288-.25.67.648 5.631 1.652 9.118 2.715 13.62 3.366 14.257.625.613 1.335-.36 1.934-2.648.586-2.241.74-4.072.524-6.226-.393-3.932-1.838-7.19-4.455-10.039-.728-.793-1.715-1.27-2.017-.975ZM7.464 13.208c-1.696.202-2.917.416-3.037.534C4.315 13.852 0 35.562 0 36.014c0 .078 1.047.141 2.326.141 2.256 0 2.33-.01 2.476-.365.083-.2.473-2.008.868-4.017l.716-3.652 2.405-.097c1.724-.069 2.781-.198 3.732-.456 3.188-.864 5.388-2.827 6.242-5.571.473-1.518.4-4.083-.146-5.167-.776-1.541-2.462-2.76-4.603-3.327-.977-.259-5.243-.45-6.552-.295Zm4.863 4.03c1.236.431 1.826 1.3 1.825 2.686-.001.638-.123 1.125-.426 1.705-.914 1.743-2.138 2.372-4.834 2.484l-1.807.075.094-.387c.052-.213.334-1.665.626-3.227.293-1.563.636-3.005.763-3.206.211-.335.352-.365 1.678-.358.796.004 1.733.106 2.08.228Zm87.079 2.045c-2.018.35-3.837 1.395-5.483 3.152-1.911 2.042-2.826 4.706-2.647 7.709.11 1.829.437 2.901 1.201 3.932 1.84 2.481 6.171 3.224 10.676 1.832.718-.222 1.391-.504 1.494-.626.201-.237.077-2.826-.153-3.19-.092-.147-.381-.108-1.157.155-2.053.695-4.52.747-5.752.12-.903-.46-1.546-1.412-1.546-2.287 0-.37.022-.375 2.612-.464 2.751-.095 3.913-.314 5.459-1.028 1.039-.48 2.035-1.396 2.451-2.254.445-.918.528-2.572.185-3.724-.404-1.362-1.629-2.536-3.113-2.984-1.324-.4-3.075-.542-4.227-.343Zm16.865-.007c-2.133.258-3.893 1.195-5.583 2.968-2.133 2.24-2.975 4.542-2.831 7.74.102 2.258.476 3.362 1.523 4.502 1.992 2.169 6.128 2.726 10.417 1.403.759-.234 1.349-.516 1.444-.69.154-.28-.035-3.037-.22-3.218-.045-.044-.552.073-1.128.26-2.109.681-4.489.753-5.643.17-.945-.477-1.625-1.404-1.625-2.217v-.459l2.053-.045c4.563-.099 7.432-1.263 8.464-3.436.503-1.058.477-3.189-.051-4.256-.429-.866-1.438-1.831-2.271-2.172-1.167-.477-3.164-.719-4.549-.55Zm-89.34.32c-3.256.836-6.003 3.046-7.368 5.928-.88 1.857-1.068 2.774-1.068 5.194 0 1.93.036 2.186.428 3.004.899 1.874 2.5 2.839 4.713 2.839 1.808 0 2.866-.509 4.529-2.18l1.223-1.228-.056 1.46-.056 1.461 2.118.046c1.606.034 2.136-.005 2.19-.163.04-.114.154-1.193.252-2.399.195-2.377.5-4.283 1.504-9.414.772-3.946.788-4.184.28-4.295-2.952-.645-6.731-.755-8.69-.252Zm34.026-.027c-4.718 1.373-7.835 6.153-7.206 11.052.504 3.933 3.119 5.894 7.85 5.89 3.338-.004 6.067-1.636 7.945-4.752 1.064-1.766 1.363-2.973 1.363-5.505 0-2.126-.015-2.223-.528-3.282-.655-1.352-1.709-2.38-3.157-3.077-1.038-.5-1.208-.53-3.184-.572-1.62-.034-2.31.021-3.083.246Zm21.729-.002c-.855.291-1.799.89-3.027 1.918l-.704.59.107-1.237.106-1.238h-2.086c-1.844 0-2.096.033-2.172.284-.047.156-.725 3.717-1.506 7.912-.78 4.196-1.458 7.793-1.504 7.994l-.085.365h2.413c2.349 0 2.416-.01 2.553-.365.077-.2.413-1.862.745-3.692.69-3.794 1.079-5.206 1.798-6.534.96-1.772 2.56-2.784 3.757-2.376.675.23 1.015.88 1.015 1.938 0 .828-.6 4.553-1.406 8.738-.23 1.195-.419 2.2-.419 2.232 0 .033 1.077.06 2.392.06h2.393l.173-.528c.095-.29.558-2.463 1.03-4.829.999-5.01 1.235-7.9.747-9.15-.335-.858-1.13-1.678-2.007-2.07-.889-.397-3.16-.403-4.313-.012Zm51.751-.091c-1.095.385-2.118 1.184-3.273 2.558l-.615.73.084-.892c.046-.491.117-1.205.158-1.587l.075-.695-2.112.045-2.113.046-.127.974c-.424 3.236-1.087 7.204-1.845 11.037l-.867 4.382 2.396.045c1.319.025 2.436.007 2.484-.04.047-.046.365-1.49.706-3.21.341-1.718.746-3.6.901-4.18.686-2.58 1.75-3.818 3.762-4.38.669-.186 1.402-.392 1.63-.457.429-.122.445-.173 1.23-4.13l.089-.447-1.033.013c-.567.007-1.256.091-1.53.188Zm-33.016 3.437c.641.262.921.675.921 1.36 0 .652-.681 1.276-1.724 1.581-1.165.342-3.828.51-3.99.251-.195-.308.76-1.98 1.422-2.493 1.115-.863 2.345-1.118 3.371-.699Zm16.676.055c.939.46 1.096 1.583.321 2.29-.483.44-1.991.816-3.77.94-1.751.12-1.747.124-1.132-1.168.867-1.822 3.059-2.809 4.581-2.062Zm-87.657.07c.086.084-.405 3.087-.76 4.637-.584 2.563-2.184 4.698-3.748 5.004-.798.156-1.693-.337-2.064-1.137-.573-1.234-.32-3.514.582-5.257.745-1.439 2.325-2.904 3.543-3.286.472-.148 2.285-.12 2.447.039Zm33.924.173c1.031.51 1.487 1.417 1.484 2.956-.005 2.028-.555 3.683-1.765 5.31-1.352 1.816-3.604 1.892-4.806.164-.475-.681-.598-1.642-.402-3.136.349-2.673 1.67-4.864 3.266-5.421.907-.317 1.377-.29 2.223.127Z" fill="#EEE3D7"/></svg>