<svg width="106" height="28" fill="none" xmlns="http://www.w3.org/2000/svg"><path fill-rule="evenodd" clip-rule="evenodd" d="M3.617.295c-.403.4-.268-.327-2.175 11.72C.167 20.072-.136 22.375.05 22.598c.353.423 4.68.409 5.107-.016.401-.399.435-.536.943-3.81.267-1.729.556-2.945.75-3.16.258-.289.663-.352 2.251-.353 3.796-.003 6.036-.646 7.785-2.236 1.301-1.182 2.193-2.84 2.627-4.885.823-3.876-.246-6.372-3.227-7.535C15.138.155 14.783.126 9.504.055 4.644-.01 3.894.02 3.617.295Zm58.935.07c-.43.473-3.818 21.65-3.546 22.168.16.304.504.351 2.569.351 2.021 0 2.43-.053 2.684-.351.178-.207.487-1.584.756-3.36.25-1.656.577-3.2.725-3.433.248-.387.508-.432 3.06-.532 3.285-.129 4.988-.575 6.46-1.691 1.24-.941 1.56-1.322 2.292-2.72 1.71-3.27 1.56-7.25-.342-9.007C75.603.306 74.04.013 67.75.013c-4.394 0-4.91.035-5.198.352Zm38.651-.101c-.114.138-.985 5.165-1.936 11.172-1.272 8.042-1.67 10.99-1.507 11.184.154.185.81.264 2.191.264 1.584 0 2.053-.069 2.388-.351.364-.307.63-1.7 2.131-11.177C105.712 3.512 106.125.458 105.968.27c-.298-.357-4.47-.363-4.765-.007Zm-88.76 4.674c.796.375 1.118 1.013 1.118 2.213 0 1.626-.788 2.797-2.2 3.266-.377.126-1.428.229-2.335.229h-1.65l.452-2.801c.248-1.54.51-2.895.581-3.01.208-.333 3.275-.255 4.034.103Zm58.936-.027c.376.156.793.488.927.738.396.735.285 2.47-.214 3.353-.681 1.205-1.394 1.517-3.68 1.61-1.773.073-1.969.046-1.969-.272 0-.413.779-5.095.908-5.462.126-.357 3.148-.332 4.028.033ZM25.57 7.506c-4.353 1.129-7.32 5.379-6.898 9.876.15 1.593.657 2.778 1.664 3.886.966 1.063 1.916 1.546 3.551 1.806 2.14.34 4.328-.184 5.859-1.403.41-.326.78-.593.823-.593.043 0 .038.272-.012.604-.152 1.035.178 1.202 2.382 1.202 1.584 0 2.058-.07 2.412-.354.39-.315.565-1.14 1.552-7.333.891-5.596 1.063-7.038.864-7.276-.198-.237-.718-.285-2.59-.24l-2.341.056-.175.704-.175.703-.651-.61c-.358-.336-1.006-.724-1.44-.864-1.182-.381-3.665-.466-4.825-.165Zm58.857.034c-1.633.456-2.925 1.236-4.135 2.496-2.626 2.737-3.419 6.7-1.954 9.778 1.046 2.2 2.959 3.308 5.737 3.326 1.728.011 3.176-.425 4.566-1.376l1.003-.685-.121.6c-.21 1.043.124 1.205 2.477 1.205 1.728 0 2.156-.061 2.448-.352.27-.27.61-1.981 1.445-7.295.6-3.82 1.034-7.091.965-7.272-.107-.278-.484-.328-2.43-.328-2.449 0-2.592.052-2.828 1.034l-.128.532-.666-.662c-.367-.364-1.026-.767-1.464-.894-1.349-.392-3.711-.443-4.915-.107Zm-44.291.23c-.271.27-.093.888 2.057 7.155l2.192 6.385-2.099 2.943c-1.303 1.827-2.076 3.095-2.04 3.345.054.379.21.402 2.658.402h2.6l6.832-9.801c5.764-8.27 6.8-9.86 6.627-10.182-.183-.34-.454-.38-2.585-.38-2.212 0-2.408.031-2.788.45-.225.25-1.568 2.15-2.983 4.227-1.416 2.076-2.6 3.746-2.63 3.712-.032-.035-.576-1.779-1.208-3.875-.633-2.097-1.293-3.97-1.467-4.163-.268-.297-.685-.351-2.674-.351-1.297 0-2.418.06-2.492.133Zm-9.687 4.202c1.048.777 1.375 1.416 1.356 2.648-.047 3.181-3.264 5.329-6.08 4.058-1.148-.518-1.669-1.4-1.664-2.816.006-1.857.996-3.367 2.72-4.146.884-.4 2.982-.254 3.668.256Zm58.824-.11c1.962.994 2.083 3.97.238 5.848-1.314 1.338-3.317 1.71-4.91.91-1.613-.807-2.062-2.683-1.123-4.687 1.01-2.157 3.719-3.125 5.795-2.072Z" fill="#EEE3D7"/></svg>