<svg width="224" height="206" fill="none" xmlns="http://www.w3.org/2000/svg"><g clip-path="url('#clip0_2747_3675')"><path d="M54.6 56.31H297.4c4.834 0 8.276 1.113 10.512 3.252 2.23 2.133 3.387 5.407 3.387 10.011v145.903c0 4.605-1.157 7.878-3.387 10.011-2.236 2.139-5.678 3.253-10.512 3.253H54.599c-4.834 0-8.275-1.114-10.512-3.253-2.23-2.133-3.387-5.406-3.387-10.011V69.573c0-4.604 1.157-7.878 3.387-10.011 2.236-2.139 5.678-3.253 10.512-3.253Z" fill="#EBC7B5" stroke="#1B1B1B" stroke-width="1.4"/><path d="M70.639 76.53h214.848c3.71 0 6.069.603 7.513 1.867 1.419 1.24 2.113 3.263 2.113 6.532v118.979c0 3.269-.694 5.291-2.113 6.532-1.444 1.264-3.803 1.868-7.513 1.868H70.639c-3.71 0-6.07-.604-7.514-1.868-1.418-1.241-2.112-3.263-2.112-6.532V84.928c0-3.268.694-5.29 2.112-6.531 1.445-1.264 3.804-1.868 7.514-1.868Z" fill="#F8EFE5" stroke="#1B1B1B" stroke-width="1.4"/><path fill="#EBC7B5" d="M186 74h44v3.23h-44z"/><path fill="#F8EFE5" d="M81 55h17v2.016H81zM41.406 103v17H40v-17z"/><path fill="#EBC7B5" d="M59 187v-20h2.747v20z"/><path d="M188.093 100.566h-49.186c-4.367 0-7.907 3.611-7.907 8.066v74.78c0 4.455 3.54 8.066 7.907 8.066h49.186c4.367 0 7.907-3.611 7.907-8.066v-74.78c0-4.455-3.54-8.066-7.907-8.066Z" fill="#9B5C8F"/><path d="M107.553 100.566H89.448c-1.904 0-3.448 1.481-3.448 3.307v17.364c0 1.826 1.543 3.306 3.448 3.306h18.105c1.904 0 3.447-1.48 3.447-3.306v-17.364c0-1.826-1.543-3.307-3.447-3.307Z" fill="#0F86A1"/><path d="M106.886 133.534H90.114A4.112 4.112 0 0 0 86 137.645v16.754a4.112 4.112 0 0 0 4.114 4.111h16.772a4.112 4.112 0 0 0 4.114-4.111v-16.754a4.112 4.112 0 0 0-4.114-4.111Z" fill="#F7D3C1"/><path d="M106.837 167.5H90.163c-2.3 0-4.163 1.787-4.163 3.992v15.992c0 2.205 1.864 3.993 4.163 3.993h16.674c2.299 0 4.163-1.788 4.163-3.993v-15.992c0-2.205-1.864-3.992-4.163-3.992Z" fill="#9B5C8F"/><path d="M265.559 102.966h-48.118c-.382 0-.748-.073-1.019-.205-.27-.131-.422-.309-.422-.495 0-.185.152-.363.422-.495.271-.131.637-.205 1.019-.205h48.118c.382 0 .748.074 1.019.205.27.132.422.31.422.495 0 .186-.152.364-.422.495-.271.132-.637.205-1.019.205ZM265.559 118.951h-48.118c-.382 0-.748-.074-1.019-.205-.27-.132-.422-.31-.422-.495 0-.186.152-.364.422-.495.271-.131.637-.205 1.019-.205h48.118c.382 0 .748.074 1.019.205.27.131.422.309.422.495 0 .185-.152.363-.422.495-.271.131-.637.205-1.019.205ZM252.48 134.935h-34.96c-.403 0-.79-.074-1.075-.205-.285-.131-.445-.309-.445-.495 0-.185.16-.364.445-.495.285-.131.672-.205 1.075-.205h34.96c.403 0 .79.074 1.075.205.285.131.445.31.445.495 0 .186-.16.364-.445.495-.285.131-.672.205-1.075.205Z" fill="#1B1B1B"/><path d="M246.602 149.52h-23.204c-4.086 0-7.398 3.354-7.398 7.492s3.312 7.493 7.398 7.493h23.204c4.086 0 7.398-3.355 7.398-7.493s-3.312-7.492-7.398-7.492Z" fill="#0F86A1"/></g><defs><clipPath id="clip0_2747_3675"><path fill="#fff" d="M0 0h224v206H0z"/></clipPath></defs></svg>